<?xml version="1.0" encoding="utf-8" standalone="no"?>
<!DOCTYPE svg PUBLIC "-//W3C//DTD SVG 1.1//EN"
  "http://www.w3.org/Graphics/SVG/1.1/DTD/svg11.dtd">
<!-- Created with matplotlib (https://matplotlib.org/) -->
<svg height="345.6pt" version="1.1" viewBox="0 0 460.8 345.6" width="460.8pt" xmlns="http://www.w3.org/2000/svg" xmlns:xlink="http://www.w3.org/1999/xlink">
 <metadata>
  <rdf:RDF xmlns:cc="http://creativecommons.org/ns#" xmlns:dc="http://purl.org/dc/elements/1.1/" xmlns:rdf="http://www.w3.org/1999/02/22-rdf-syntax-ns#">
   <cc:Work>
    <dc:type rdf:resource="http://purl.org/dc/dcmitype/StillImage"/>
    <dc:date>2023-03-21T21:52:44.409922</dc:date>
    <dc:format>image/svg+xml</dc:format>
    <dc:creator>
     <cc:Agent>
      <dc:title>Matplotlib v3.3.4, https://matplotlib.org/</dc:title>
     </cc:Agent>
    </dc:creator>
   </cc:Work>
  </rdf:RDF>
 </metadata>
 <defs>
  <style type="text/css">*{stroke-linecap:butt;stroke-linejoin:round;}</style>
 </defs>
 <g id="figure_1">
  <g id="patch_1">
   <path d="M 0 345.6 
L 460.8 345.6 
L 460.8 0 
L 0 0 
z
" style="fill:#ffffff;"/>
  </g>
  <g id="axes_1">
   <g id="patch_2">
    <path d="M 72.29 299.32 
L 446.498664 299.32 
L 446.498664 27.6 
L 72.29 27.6 
z
" style="fill:#ffffff;"/>
   </g>
   <g id="matplotlib.axis_1">
    <g id="xtick_1">
     <g id="line2d_1">
      <path clip-path="url(#pdf419d4de7)" d="M 80.49647 299.32 
L 80.49647 27.6 
" style="fill:none;stroke:#cccccc;stroke-linecap:round;stroke-width:0.8;"/>
     </g>
     <g id="text_1">
      <!-- 0 -->
      <g style="fill:#262626;" transform="translate(76.67897 315.438125)scale(0.12 -0.12)">
       <defs>
        <path d="M 31.78125 66.40625 
Q 24.171875 66.40625 20.328125 58.90625 
Q 16.5 51.421875 16.5 36.375 
Q 16.5 21.390625 20.328125 13.890625 
Q 24.171875 6.390625 31.78125 6.390625 
Q 39.453125 6.390625 43.28125 13.890625 
Q 47.125 21.390625 47.125 36.375 
Q 47.125 51.421875 43.28125 58.90625 
Q 39.453125 66.40625 31.78125 66.40625 
z
M 31.78125 74.21875 
Q 44.046875 74.21875 50.515625 64.515625 
Q 56.984375 54.828125 56.984375 36.375 
Q 56.984375 17.96875 50.515625 8.265625 
Q 44.046875 -1.421875 31.78125 -1.421875 
Q 19.53125 -1.421875 13.0625 8.265625 
Q 6.59375 17.96875 6.59375 36.375 
Q 6.59375 54.828125 13.0625 64.515625 
Q 19.53125 74.21875 31.78125 74.21875 
z
" id="DejaVuSans-48"/>
       </defs>
       <use xlink:href="#DejaVuSans-48"/>
      </g>
     </g>
    </g>
    <g id="xtick_2">
     <g id="line2d_2">
      <path clip-path="url(#pdf419d4de7)" d="M 149.621047 299.32 
L 149.621047 27.6 
" style="fill:none;stroke:#cccccc;stroke-linecap:round;stroke-width:0.8;"/>
     </g>
     <g id="text_2">
      <!-- 20000 -->
      <g style="fill:#262626;" transform="translate(130.533547 315.438125)scale(0.12 -0.12)">
       <defs>
        <path d="M 19.1875 8.296875 
L 53.609375 8.296875 
L 53.609375 0 
L 7.328125 0 
L 7.328125 8.296875 
Q 12.9375 14.109375 22.625 23.890625 
Q 32.328125 33.6875 34.8125 36.53125 
Q 39.546875 41.84375 41.421875 45.53125 
Q 43.3125 49.21875 43.3125 52.78125 
Q 43.3125 58.59375 39.234375 62.25 
Q 35.15625 65.921875 28.609375 65.921875 
Q 23.96875 65.921875 18.8125 64.3125 
Q 13.671875 62.703125 7.8125 59.421875 
L 7.8125 69.390625 
Q 13.765625 71.78125 18.9375 73 
Q 24.125 74.21875 28.421875 74.21875 
Q 39.75 74.21875 46.484375 68.546875 
Q 53.21875 62.890625 53.21875 53.421875 
Q 53.21875 48.921875 51.53125 44.890625 
Q 49.859375 40.875 45.40625 35.40625 
Q 44.1875 33.984375 37.640625 27.21875 
Q 31.109375 20.453125 19.1875 8.296875 
z
" id="DejaVuSans-50"/>
       </defs>
       <use xlink:href="#DejaVuSans-50"/>
       <use x="63.623047" xlink:href="#DejaVuSans-48"/>
       <use x="127.246094" xlink:href="#DejaVuSans-48"/>
       <use x="190.869141" xlink:href="#DejaVuSans-48"/>
       <use x="254.492188" xlink:href="#DejaVuSans-48"/>
      </g>
     </g>
    </g>
    <g id="xtick_3">
     <g id="line2d_3">
      <path clip-path="url(#pdf419d4de7)" d="M 218.745624 299.32 
L 218.745624 27.6 
" style="fill:none;stroke:#cccccc;stroke-linecap:round;stroke-width:0.8;"/>
     </g>
     <g id="text_3">
      <!-- 40000 -->
      <g style="fill:#262626;" transform="translate(199.658124 315.438125)scale(0.12 -0.12)">
       <defs>
        <path d="M 37.796875 64.3125 
L 12.890625 25.390625 
L 37.796875 25.390625 
z
M 35.203125 72.90625 
L 47.609375 72.90625 
L 47.609375 25.390625 
L 58.015625 25.390625 
L 58.015625 17.1875 
L 47.609375 17.1875 
L 47.609375 0 
L 37.796875 0 
L 37.796875 17.1875 
L 4.890625 17.1875 
L 4.890625 26.703125 
z
" id="DejaVuSans-52"/>
       </defs>
       <use xlink:href="#DejaVuSans-52"/>
       <use x="63.623047" xlink:href="#DejaVuSans-48"/>
       <use x="127.246094" xlink:href="#DejaVuSans-48"/>
       <use x="190.869141" xlink:href="#DejaVuSans-48"/>
       <use x="254.492188" xlink:href="#DejaVuSans-48"/>
      </g>
     </g>
    </g>
    <g id="xtick_4">
     <g id="line2d_4">
      <path clip-path="url(#pdf419d4de7)" d="M 287.870201 299.32 
L 287.870201 27.6 
" style="fill:none;stroke:#cccccc;stroke-linecap:round;stroke-width:0.8;"/>
     </g>
     <g id="text_4">
      <!-- 60000 -->
      <g style="fill:#262626;" transform="translate(268.782701 315.438125)scale(0.12 -0.12)">
       <defs>
        <path d="M 33.015625 40.375 
Q 26.375 40.375 22.484375 35.828125 
Q 18.609375 31.296875 18.609375 23.390625 
Q 18.609375 15.53125 22.484375 10.953125 
Q 26.375 6.390625 33.015625 6.390625 
Q 39.65625 6.390625 43.53125 10.953125 
Q 47.40625 15.53125 47.40625 23.390625 
Q 47.40625 31.296875 43.53125 35.828125 
Q 39.65625 40.375 33.015625 40.375 
z
M 52.59375 71.296875 
L 52.59375 62.3125 
Q 48.875 64.0625 45.09375 64.984375 
Q 41.3125 65.921875 37.59375 65.921875 
Q 27.828125 65.921875 22.671875 59.328125 
Q 17.53125 52.734375 16.796875 39.40625 
Q 19.671875 43.65625 24.015625 45.921875 
Q 28.375 48.1875 33.59375 48.1875 
Q 44.578125 48.1875 50.953125 41.515625 
Q 57.328125 34.859375 57.328125 23.390625 
Q 57.328125 12.15625 50.6875 5.359375 
Q 44.046875 -1.421875 33.015625 -1.421875 
Q 20.359375 -1.421875 13.671875 8.265625 
Q 6.984375 17.96875 6.984375 36.375 
Q 6.984375 53.65625 15.1875 63.9375 
Q 23.390625 74.21875 37.203125 74.21875 
Q 40.921875 74.21875 44.703125 73.484375 
Q 48.484375 72.75 52.59375 71.296875 
z
" id="DejaVuSans-54"/>
       </defs>
       <use xlink:href="#DejaVuSans-54"/>
       <use x="63.623047" xlink:href="#DejaVuSans-48"/>
       <use x="127.246094" xlink:href="#DejaVuSans-48"/>
       <use x="190.869141" xlink:href="#DejaVuSans-48"/>
       <use x="254.492188" xlink:href="#DejaVuSans-48"/>
      </g>
     </g>
    </g>
    <g id="xtick_5">
     <g id="line2d_5">
      <path clip-path="url(#pdf419d4de7)" d="M 356.994779 299.32 
L 356.994779 27.6 
" style="fill:none;stroke:#cccccc;stroke-linecap:round;stroke-width:0.8;"/>
     </g>
     <g id="text_5">
      <!-- 80000 -->
      <g style="fill:#262626;" transform="translate(337.907279 315.438125)scale(0.12 -0.12)">
       <defs>
        <path d="M 31.78125 34.625 
Q 24.75 34.625 20.71875 30.859375 
Q 16.703125 27.09375 16.703125 20.515625 
Q 16.703125 13.921875 20.71875 10.15625 
Q 24.75 6.390625 31.78125 6.390625 
Q 38.8125 6.390625 42.859375 10.171875 
Q 46.921875 13.96875 46.921875 20.515625 
Q 46.921875 27.09375 42.890625 30.859375 
Q 38.875 34.625 31.78125 34.625 
z
M 21.921875 38.8125 
Q 15.578125 40.375 12.03125 44.71875 
Q 8.5 49.078125 8.5 55.328125 
Q 8.5 64.0625 14.71875 69.140625 
Q 20.953125 74.21875 31.78125 74.21875 
Q 42.671875 74.21875 48.875 69.140625 
Q 55.078125 64.0625 55.078125 55.328125 
Q 55.078125 49.078125 51.53125 44.71875 
Q 48 40.375 41.703125 38.8125 
Q 48.828125 37.15625 52.796875 32.3125 
Q 56.78125 27.484375 56.78125 20.515625 
Q 56.78125 9.90625 50.3125 4.234375 
Q 43.84375 -1.421875 31.78125 -1.421875 
Q 19.734375 -1.421875 13.25 4.234375 
Q 6.78125 9.90625 6.78125 20.515625 
Q 6.78125 27.484375 10.78125 32.3125 
Q 14.796875 37.15625 21.921875 38.8125 
z
M 18.3125 54.390625 
Q 18.3125 48.734375 21.84375 45.5625 
Q 25.390625 42.390625 31.78125 42.390625 
Q 38.140625 42.390625 41.71875 45.5625 
Q 45.3125 48.734375 45.3125 54.390625 
Q 45.3125 60.0625 41.71875 63.234375 
Q 38.140625 66.40625 31.78125 66.40625 
Q 25.390625 66.40625 21.84375 63.234375 
Q 18.3125 60.0625 18.3125 54.390625 
z
" id="DejaVuSans-56"/>
       </defs>
       <use xlink:href="#DejaVuSans-56"/>
       <use x="63.623047" xlink:href="#DejaVuSans-48"/>
       <use x="127.246094" xlink:href="#DejaVuSans-48"/>
       <use x="190.869141" xlink:href="#DejaVuSans-48"/>
       <use x="254.492188" xlink:href="#DejaVuSans-48"/>
      </g>
     </g>
    </g>
    <g id="xtick_6">
     <g id="line2d_6">
      <path clip-path="url(#pdf419d4de7)" d="M 426.119356 299.32 
L 426.119356 27.6 
" style="fill:none;stroke:#cccccc;stroke-linecap:round;stroke-width:0.8;"/>
     </g>
     <g id="text_6">
      <!-- 100000 -->
      <g style="fill:#262626;" transform="translate(403.214356 315.438125)scale(0.12 -0.12)">
       <defs>
        <path d="M 12.40625 8.296875 
L 28.515625 8.296875 
L 28.515625 63.921875 
L 10.984375 60.40625 
L 10.984375 69.390625 
L 28.421875 72.90625 
L 38.28125 72.90625 
L 38.28125 8.296875 
L 54.390625 8.296875 
L 54.390625 0 
L 12.40625 0 
z
" id="DejaVuSans-49"/>
       </defs>
       <use xlink:href="#DejaVuSans-49"/>
       <use x="63.623047" xlink:href="#DejaVuSans-48"/>
       <use x="127.246094" xlink:href="#DejaVuSans-48"/>
       <use x="190.869141" xlink:href="#DejaVuSans-48"/>
       <use x="254.492188" xlink:href="#DejaVuSans-48"/>
       <use x="318.115234" xlink:href="#DejaVuSans-48"/>
      </g>
     </g>
    </g>
    <g id="text_7">
     <!-- Training timesteps -->
     <g style="fill:#262626;" transform="translate(194.950582 332.571562)scale(0.14 -0.14)">
      <defs>
       <path d="M -0.296875 72.90625 
L 61.375 72.90625 
L 61.375 64.59375 
L 35.5 64.59375 
L 35.5 0 
L 25.59375 0 
L 25.59375 64.59375 
L -0.296875 64.59375 
z
" id="DejaVuSans-84"/>
       <path d="M 41.109375 46.296875 
Q 39.59375 47.171875 37.8125 47.578125 
Q 36.03125 48 33.890625 48 
Q 26.265625 48 22.1875 43.046875 
Q 18.109375 38.09375 18.109375 28.8125 
L 18.109375 0 
L 9.078125 0 
L 9.078125 54.6875 
L 18.109375 54.6875 
L 18.109375 46.1875 
Q 20.953125 51.171875 25.484375 53.578125 
Q 30.03125 56 36.53125 56 
Q 37.453125 56 38.578125 55.875 
Q 39.703125 55.765625 41.0625 55.515625 
z
" id="DejaVuSans-114"/>
       <path d="M 34.28125 27.484375 
Q 23.390625 27.484375 19.1875 25 
Q 14.984375 22.515625 14.984375 16.5 
Q 14.984375 11.71875 18.140625 8.90625 
Q 21.296875 6.109375 26.703125 6.109375 
Q 34.1875 6.109375 38.703125 11.40625 
Q 43.21875 16.703125 43.21875 25.484375 
L 43.21875 27.484375 
z
M 52.203125 31.203125 
L 52.203125 0 
L 43.21875 0 
L 43.21875 8.296875 
Q 40.140625 3.328125 35.546875 0.953125 
Q 30.953125 -1.421875 24.3125 -1.421875 
Q 15.921875 -1.421875 10.953125 3.296875 
Q 6 8.015625 6 15.921875 
Q 6 25.140625 12.171875 29.828125 
Q 18.359375 34.515625 30.609375 34.515625 
L 43.21875 34.515625 
L 43.21875 35.40625 
Q 43.21875 41.609375 39.140625 45 
Q 35.0625 48.390625 27.6875 48.390625 
Q 23 48.390625 18.546875 47.265625 
Q 14.109375 46.140625 10.015625 43.890625 
L 10.015625 52.203125 
Q 14.9375 54.109375 19.578125 55.046875 
Q 24.21875 56 28.609375 56 
Q 40.484375 56 46.34375 49.84375 
Q 52.203125 43.703125 52.203125 31.203125 
z
" id="DejaVuSans-97"/>
       <path d="M 9.421875 54.6875 
L 18.40625 54.6875 
L 18.40625 0 
L 9.421875 0 
z
M 9.421875 75.984375 
L 18.40625 75.984375 
L 18.40625 64.59375 
L 9.421875 64.59375 
z
" id="DejaVuSans-105"/>
       <path d="M 54.890625 33.015625 
L 54.890625 0 
L 45.90625 0 
L 45.90625 32.71875 
Q 45.90625 40.484375 42.875 44.328125 
Q 39.84375 48.1875 33.796875 48.1875 
Q 26.515625 48.1875 22.3125 43.546875 
Q 18.109375 38.921875 18.109375 30.90625 
L 18.109375 0 
L 9.078125 0 
L 9.078125 54.6875 
L 18.109375 54.6875 
L 18.109375 46.1875 
Q 21.34375 51.125 25.703125 53.5625 
Q 30.078125 56 35.796875 56 
Q 45.21875 56 50.046875 50.171875 
Q 54.890625 44.34375 54.890625 33.015625 
z
" id="DejaVuSans-110"/>
       <path d="M 45.40625 27.984375 
Q 45.40625 37.75 41.375 43.109375 
Q 37.359375 48.484375 30.078125 48.484375 
Q 22.859375 48.484375 18.828125 43.109375 
Q 14.796875 37.75 14.796875 27.984375 
Q 14.796875 18.265625 18.828125 12.890625 
Q 22.859375 7.515625 30.078125 7.515625 
Q 37.359375 7.515625 41.375 12.890625 
Q 45.40625 18.265625 45.40625 27.984375 
z
M 54.390625 6.78125 
Q 54.390625 -7.171875 48.1875 -13.984375 
Q 42 -20.796875 29.203125 -20.796875 
Q 24.46875 -20.796875 20.265625 -20.09375 
Q 16.0625 -19.390625 12.109375 -17.921875 
L 12.109375 -9.1875 
Q 16.0625 -11.328125 19.921875 -12.34375 
Q 23.78125 -13.375 27.78125 -13.375 
Q 36.625 -13.375 41.015625 -8.765625 
Q 45.40625 -4.15625 45.40625 5.171875 
L 45.40625 9.625 
Q 42.625 4.78125 38.28125 2.390625 
Q 33.9375 0 27.875 0 
Q 17.828125 0 11.671875 7.65625 
Q 5.515625 15.328125 5.515625 27.984375 
Q 5.515625 40.671875 11.671875 48.328125 
Q 17.828125 56 27.875 56 
Q 33.9375 56 38.28125 53.609375 
Q 42.625 51.21875 45.40625 46.390625 
L 45.40625 54.6875 
L 54.390625 54.6875 
z
" id="DejaVuSans-103"/>
       <path id="DejaVuSans-32"/>
       <path d="M 18.3125 70.21875 
L 18.3125 54.6875 
L 36.8125 54.6875 
L 36.8125 47.703125 
L 18.3125 47.703125 
L 18.3125 18.015625 
Q 18.3125 11.328125 20.140625 9.421875 
Q 21.96875 7.515625 27.59375 7.515625 
L 36.8125 7.515625 
L 36.8125 0 
L 27.59375 0 
Q 17.1875 0 13.234375 3.875 
Q 9.28125 7.765625 9.28125 18.015625 
L 9.28125 47.703125 
L 2.6875 47.703125 
L 2.6875 54.6875 
L 9.28125 54.6875 
L 9.28125 70.21875 
z
" id="DejaVuSans-116"/>
       <path d="M 52 44.1875 
Q 55.375 50.25 60.0625 53.125 
Q 64.75 56 71.09375 56 
Q 79.640625 56 84.28125 50.015625 
Q 88.921875 44.046875 88.921875 33.015625 
L 88.921875 0 
L 79.890625 0 
L 79.890625 32.71875 
Q 79.890625 40.578125 77.09375 44.375 
Q 74.3125 48.1875 68.609375 48.1875 
Q 61.625 48.1875 57.5625 43.546875 
Q 53.515625 38.921875 53.515625 30.90625 
L 53.515625 0 
L 44.484375 0 
L 44.484375 32.71875 
Q 44.484375 40.625 41.703125 44.40625 
Q 38.921875 48.1875 33.109375 48.1875 
Q 26.21875 48.1875 22.15625 43.53125 
Q 18.109375 38.875 18.109375 30.90625 
L 18.109375 0 
L 9.078125 0 
L 9.078125 54.6875 
L 18.109375 54.6875 
L 18.109375 46.1875 
Q 21.1875 51.21875 25.484375 53.609375 
Q 29.78125 56 35.6875 56 
Q 41.65625 56 45.828125 52.96875 
Q 50 49.953125 52 44.1875 
z
" id="DejaVuSans-109"/>
       <path d="M 56.203125 29.59375 
L 56.203125 25.203125 
L 14.890625 25.203125 
Q 15.484375 15.921875 20.484375 11.0625 
Q 25.484375 6.203125 34.421875 6.203125 
Q 39.59375 6.203125 44.453125 7.46875 
Q 49.3125 8.734375 54.109375 11.28125 
L 54.109375 2.78125 
Q 49.265625 0.734375 44.1875 -0.34375 
Q 39.109375 -1.421875 33.890625 -1.421875 
Q 20.796875 -1.421875 13.15625 6.1875 
Q 5.515625 13.8125 5.515625 26.8125 
Q 5.515625 40.234375 12.765625 48.109375 
Q 20.015625 56 32.328125 56 
Q 43.359375 56 49.78125 48.890625 
Q 56.203125 41.796875 56.203125 29.59375 
z
M 47.21875 32.234375 
Q 47.125 39.59375 43.09375 43.984375 
Q 39.0625 48.390625 32.421875 48.390625 
Q 24.90625 48.390625 20.390625 44.140625 
Q 15.875 39.890625 15.1875 32.171875 
z
" id="DejaVuSans-101"/>
       <path d="M 44.28125 53.078125 
L 44.28125 44.578125 
Q 40.484375 46.53125 36.375 47.5 
Q 32.28125 48.484375 27.875 48.484375 
Q 21.1875 48.484375 17.84375 46.4375 
Q 14.5 44.390625 14.5 40.28125 
Q 14.5 37.15625 16.890625 35.375 
Q 19.28125 33.59375 26.515625 31.984375 
L 29.59375 31.296875 
Q 39.15625 29.25 43.1875 25.515625 
Q 47.21875 21.78125 47.21875 15.09375 
Q 47.21875 7.46875 41.1875 3.015625 
Q 35.15625 -1.421875 24.609375 -1.421875 
Q 20.21875 -1.421875 15.453125 -0.5625 
Q 10.6875 0.296875 5.421875 2 
L 5.421875 11.28125 
Q 10.40625 8.6875 15.234375 7.390625 
Q 20.0625 6.109375 24.8125 6.109375 
Q 31.15625 6.109375 34.5625 8.28125 
Q 37.984375 10.453125 37.984375 14.40625 
Q 37.984375 18.0625 35.515625 20.015625 
Q 33.0625 21.96875 24.703125 23.78125 
L 21.578125 24.515625 
Q 13.234375 26.265625 9.515625 29.90625 
Q 5.8125 33.546875 5.8125 39.890625 
Q 5.8125 47.609375 11.28125 51.796875 
Q 16.75 56 26.8125 56 
Q 31.78125 56 36.171875 55.265625 
Q 40.578125 54.546875 44.28125 53.078125 
z
" id="DejaVuSans-115"/>
       <path d="M 18.109375 8.203125 
L 18.109375 -20.796875 
L 9.078125 -20.796875 
L 9.078125 54.6875 
L 18.109375 54.6875 
L 18.109375 46.390625 
Q 20.953125 51.265625 25.265625 53.625 
Q 29.59375 56 35.59375 56 
Q 45.5625 56 51.78125 48.09375 
Q 58.015625 40.1875 58.015625 27.296875 
Q 58.015625 14.40625 51.78125 6.484375 
Q 45.5625 -1.421875 35.59375 -1.421875 
Q 29.59375 -1.421875 25.265625 0.953125 
Q 20.953125 3.328125 18.109375 8.203125 
z
M 48.6875 27.296875 
Q 48.6875 37.203125 44.609375 42.84375 
Q 40.53125 48.484375 33.40625 48.484375 
Q 26.265625 48.484375 22.1875 42.84375 
Q 18.109375 37.203125 18.109375 27.296875 
Q 18.109375 17.390625 22.1875 11.75 
Q 26.265625 6.109375 33.40625 6.109375 
Q 40.53125 6.109375 44.609375 11.75 
Q 48.6875 17.390625 48.6875 27.296875 
z
" id="DejaVuSans-112"/>
      </defs>
      <use xlink:href="#DejaVuSans-84"/>
      <use x="46.333984" xlink:href="#DejaVuSans-114"/>
      <use x="87.447266" xlink:href="#DejaVuSans-97"/>
      <use x="148.726562" xlink:href="#DejaVuSans-105"/>
      <use x="176.509766" xlink:href="#DejaVuSans-110"/>
      <use x="239.888672" xlink:href="#DejaVuSans-105"/>
      <use x="267.671875" xlink:href="#DejaVuSans-110"/>
      <use x="331.050781" xlink:href="#DejaVuSans-103"/>
      <use x="394.527344" xlink:href="#DejaVuSans-32"/>
      <use x="426.314453" xlink:href="#DejaVuSans-116"/>
      <use x="465.523438" xlink:href="#DejaVuSans-105"/>
      <use x="493.306641" xlink:href="#DejaVuSans-109"/>
      <use x="590.71875" xlink:href="#DejaVuSans-101"/>
      <use x="652.242188" xlink:href="#DejaVuSans-115"/>
      <use x="704.341797" xlink:href="#DejaVuSans-116"/>
      <use x="743.550781" xlink:href="#DejaVuSans-101"/>
      <use x="805.074219" xlink:href="#DejaVuSans-112"/>
      <use x="868.550781" xlink:href="#DejaVuSans-115"/>
     </g>
    </g>
   </g>
   <g id="matplotlib.axis_2">
    <g id="ytick_1">
     <g id="line2d_7">
      <path clip-path="url(#pdf419d4de7)" d="M 72.29 285.710524 
L 446.498664 285.710524 
" style="fill:none;stroke:#cccccc;stroke-linecap:round;stroke-width:0.8;"/>
     </g>
     <g id="text_8">
      <!-- −1.25 -->
      <g style="fill:#262626;" transform="translate(28.515625 290.269586)scale(0.12 -0.12)">
       <defs>
        <path d="M 10.59375 35.5 
L 73.1875 35.5 
L 73.1875 27.203125 
L 10.59375 27.203125 
z
" id="DejaVuSans-8722"/>
        <path d="M 10.6875 12.40625 
L 21 12.40625 
L 21 0 
L 10.6875 0 
z
" id="DejaVuSans-46"/>
        <path d="M 10.796875 72.90625 
L 49.515625 72.90625 
L 49.515625 64.59375 
L 19.828125 64.59375 
L 19.828125 46.734375 
Q 21.96875 47.46875 24.109375 47.828125 
Q 26.265625 48.1875 28.421875 48.1875 
Q 40.625 48.1875 47.75 41.5 
Q 54.890625 34.8125 54.890625 23.390625 
Q 54.890625 11.625 47.5625 5.09375 
Q 40.234375 -1.421875 26.90625 -1.421875 
Q 22.3125 -1.421875 17.546875 -0.640625 
Q 12.796875 0.140625 7.71875 1.703125 
L 7.71875 11.625 
Q 12.109375 9.234375 16.796875 8.0625 
Q 21.484375 6.890625 26.703125 6.890625 
Q 35.15625 6.890625 40.078125 11.328125 
Q 45.015625 15.765625 45.015625 23.390625 
Q 45.015625 31 40.078125 35.4375 
Q 35.15625 39.890625 26.703125 39.890625 
Q 22.75 39.890625 18.8125 39.015625 
Q 14.890625 38.140625 10.796875 36.28125 
z
" id="DejaVuSans-53"/>
       </defs>
       <use xlink:href="#DejaVuSans-8722"/>
       <use x="83.789062" xlink:href="#DejaVuSans-49"/>
       <use x="147.412109" xlink:href="#DejaVuSans-46"/>
       <use x="179.199219" xlink:href="#DejaVuSans-50"/>
       <use x="242.822266" xlink:href="#DejaVuSans-53"/>
      </g>
     </g>
    </g>
    <g id="ytick_2">
     <g id="line2d_8">
      <path clip-path="url(#pdf419d4de7)" d="M 72.29 254.902853 
L 446.498664 254.902853 
" style="fill:none;stroke:#cccccc;stroke-linecap:round;stroke-width:0.8;"/>
     </g>
     <g id="text_9">
      <!-- −1.00 -->
      <g style="fill:#262626;" transform="translate(28.515625 259.461916)scale(0.12 -0.12)">
       <use xlink:href="#DejaVuSans-8722"/>
       <use x="83.789062" xlink:href="#DejaVuSans-49"/>
       <use x="147.412109" xlink:href="#DejaVuSans-46"/>
       <use x="179.199219" xlink:href="#DejaVuSans-48"/>
       <use x="242.822266" xlink:href="#DejaVuSans-48"/>
      </g>
     </g>
    </g>
    <g id="ytick_3">
     <g id="line2d_9">
      <path clip-path="url(#pdf419d4de7)" d="M 72.29 224.095183 
L 446.498664 224.095183 
" style="fill:none;stroke:#cccccc;stroke-linecap:round;stroke-width:0.8;"/>
     </g>
     <g id="text_10">
      <!-- −0.75 -->
      <g style="fill:#262626;" transform="translate(28.515625 228.654246)scale(0.12 -0.12)">
       <defs>
        <path d="M 8.203125 72.90625 
L 55.078125 72.90625 
L 55.078125 68.703125 
L 28.609375 0 
L 18.3125 0 
L 43.21875 64.59375 
L 8.203125 64.59375 
z
" id="DejaVuSans-55"/>
       </defs>
       <use xlink:href="#DejaVuSans-8722"/>
       <use x="83.789062" xlink:href="#DejaVuSans-48"/>
       <use x="147.412109" xlink:href="#DejaVuSans-46"/>
       <use x="179.199219" xlink:href="#DejaVuSans-55"/>
       <use x="242.822266" xlink:href="#DejaVuSans-53"/>
      </g>
     </g>
    </g>
    <g id="ytick_4">
     <g id="line2d_10">
      <path clip-path="url(#pdf419d4de7)" d="M 72.29 193.287513 
L 446.498664 193.287513 
" style="fill:none;stroke:#cccccc;stroke-linecap:round;stroke-width:0.8;"/>
     </g>
     <g id="text_11">
      <!-- −0.50 -->
      <g style="fill:#262626;" transform="translate(28.515625 197.846576)scale(0.12 -0.12)">
       <use xlink:href="#DejaVuSans-8722"/>
       <use x="83.789062" xlink:href="#DejaVuSans-48"/>
       <use x="147.412109" xlink:href="#DejaVuSans-46"/>
       <use x="179.199219" xlink:href="#DejaVuSans-53"/>
       <use x="242.822266" xlink:href="#DejaVuSans-48"/>
      </g>
     </g>
    </g>
    <g id="ytick_5">
     <g id="line2d_11">
      <path clip-path="url(#pdf419d4de7)" d="M 72.29 162.479843 
L 446.498664 162.479843 
" style="fill:none;stroke:#cccccc;stroke-linecap:round;stroke-width:0.8;"/>
     </g>
     <g id="text_12">
      <!-- −0.25 -->
      <g style="fill:#262626;" transform="translate(28.515625 167.038905)scale(0.12 -0.12)">
       <use xlink:href="#DejaVuSans-8722"/>
       <use x="83.789062" xlink:href="#DejaVuSans-48"/>
       <use x="147.412109" xlink:href="#DejaVuSans-46"/>
       <use x="179.199219" xlink:href="#DejaVuSans-50"/>
       <use x="242.822266" xlink:href="#DejaVuSans-53"/>
      </g>
     </g>
    </g>
    <g id="ytick_6">
     <g id="line2d_12">
      <path clip-path="url(#pdf419d4de7)" d="M 72.29 131.672173 
L 446.498664 131.672173 
" style="fill:none;stroke:#cccccc;stroke-linecap:round;stroke-width:0.8;"/>
     </g>
     <g id="text_13">
      <!-- 0.00 -->
      <g style="fill:#262626;" transform="translate(38.57125 136.231235)scale(0.12 -0.12)">
       <use xlink:href="#DejaVuSans-48"/>
       <use x="63.623047" xlink:href="#DejaVuSans-46"/>
       <use x="95.410156" xlink:href="#DejaVuSans-48"/>
       <use x="159.033203" xlink:href="#DejaVuSans-48"/>
      </g>
     </g>
    </g>
    <g id="ytick_7">
     <g id="line2d_13">
      <path clip-path="url(#pdf419d4de7)" d="M 72.29 100.864503 
L 446.498664 100.864503 
" style="fill:none;stroke:#cccccc;stroke-linecap:round;stroke-width:0.8;"/>
     </g>
     <g id="text_14">
      <!-- 0.25 -->
      <g style="fill:#262626;" transform="translate(38.57125 105.423565)scale(0.12 -0.12)">
       <use xlink:href="#DejaVuSans-48"/>
       <use x="63.623047" xlink:href="#DejaVuSans-46"/>
       <use x="95.410156" xlink:href="#DejaVuSans-50"/>
       <use x="159.033203" xlink:href="#DejaVuSans-53"/>
      </g>
     </g>
    </g>
    <g id="ytick_8">
     <g id="line2d_14">
      <path clip-path="url(#pdf419d4de7)" d="M 72.29 70.056832 
L 446.498664 70.056832 
" style="fill:none;stroke:#cccccc;stroke-linecap:round;stroke-width:0.8;"/>
     </g>
     <g id="text_15">
      <!-- 0.50 -->
      <g style="fill:#262626;" transform="translate(38.57125 74.615895)scale(0.12 -0.12)">
       <use xlink:href="#DejaVuSans-48"/>
       <use x="63.623047" xlink:href="#DejaVuSans-46"/>
       <use x="95.410156" xlink:href="#DejaVuSans-53"/>
       <use x="159.033203" xlink:href="#DejaVuSans-48"/>
      </g>
     </g>
    </g>
    <g id="ytick_9">
     <g id="line2d_15">
      <path clip-path="url(#pdf419d4de7)" d="M 72.29 39.249162 
L 446.498664 39.249162 
" style="fill:none;stroke:#cccccc;stroke-linecap:round;stroke-width:0.8;"/>
     </g>
     <g id="text_16">
      <!-- 0.75 -->
      <g style="fill:#262626;" transform="translate(38.57125 43.808225)scale(0.12 -0.12)">
       <use xlink:href="#DejaVuSans-48"/>
       <use x="63.623047" xlink:href="#DejaVuSans-46"/>
       <use x="95.410156" xlink:href="#DejaVuSans-55"/>
       <use x="159.033203" xlink:href="#DejaVuSans-53"/>
      </g>
     </g>
    </g>
    <g id="text_17">
     <!-- Average return -->
     <g style="fill:#262626;" transform="translate(21.604063 215.829844)rotate(-90)scale(0.14 -0.14)">
      <defs>
       <path d="M 34.1875 63.1875 
L 20.796875 26.90625 
L 47.609375 26.90625 
z
M 28.609375 72.90625 
L 39.796875 72.90625 
L 67.578125 0 
L 57.328125 0 
L 50.6875 18.703125 
L 17.828125 18.703125 
L 11.1875 0 
L 0.78125 0 
z
" id="DejaVuSans-65"/>
       <path d="M 2.984375 54.6875 
L 12.5 54.6875 
L 29.59375 8.796875 
L 46.6875 54.6875 
L 56.203125 54.6875 
L 35.6875 0 
L 23.484375 0 
z
" id="DejaVuSans-118"/>
       <path d="M 8.5 21.578125 
L 8.5 54.6875 
L 17.484375 54.6875 
L 17.484375 21.921875 
Q 17.484375 14.15625 20.5 10.265625 
Q 23.53125 6.390625 29.59375 6.390625 
Q 36.859375 6.390625 41.078125 11.03125 
Q 45.3125 15.671875 45.3125 23.6875 
L 45.3125 54.6875 
L 54.296875 54.6875 
L 54.296875 0 
L 45.3125 0 
L 45.3125 8.40625 
Q 42.046875 3.421875 37.71875 1 
Q 33.40625 -1.421875 27.6875 -1.421875 
Q 18.265625 -1.421875 13.375 4.4375 
Q 8.5 10.296875 8.5 21.578125 
z
M 31.109375 56 
z
" id="DejaVuSans-117"/>
      </defs>
      <use xlink:href="#DejaVuSans-65"/>
      <use x="62.533203" xlink:href="#DejaVuSans-118"/>
      <use x="121.712891" xlink:href="#DejaVuSans-101"/>
      <use x="183.236328" xlink:href="#DejaVuSans-114"/>
      <use x="224.349609" xlink:href="#DejaVuSans-97"/>
      <use x="285.628906" xlink:href="#DejaVuSans-103"/>
      <use x="349.105469" xlink:href="#DejaVuSans-101"/>
      <use x="410.628906" xlink:href="#DejaVuSans-32"/>
      <use x="442.416016" xlink:href="#DejaVuSans-114"/>
      <use x="481.279297" xlink:href="#DejaVuSans-101"/>
      <use x="542.802734" xlink:href="#DejaVuSans-116"/>
      <use x="582.011719" xlink:href="#DejaVuSans-117"/>
      <use x="645.390625" xlink:href="#DejaVuSans-114"/>
      <use x="684.753906" xlink:href="#DejaVuSans-110"/>
     </g>
    </g>
   </g>
   <g id="line2d_16">
    <path clip-path="url(#pdf419d4de7)" d="M 89.299485 279.31619 
L 89.444646 272.908194 
L 89.461927 266.007276 
L 89.721145 253.288534 
L 90.028749 248.605768 
L 90.077136 248.850164 
L 90.111698 251.452392 
L 91.145111 251.452392 
L 91.36631 252.684699 
L 91.542577 252.684699 
L 91.54949 255.149312 
L 92.690045 255.149312 
L 93.035668 252.93116 
L 93.350185 252.93116 
L 93.695808 250.713008 
L 96.944663 250.713008 
L 96.989594 250.466549 
L 101.240755 250.466549 
L 101.586378 248.001935 
L 102.046057 248.001935 
L 102.184306 250.220088 
L 102.436611 252.43824 
L 106.307587 252.43824 
L 106.763809 249.973626 
L 111.647461 249.973626 
L 111.75806 252.43824 
L 115.497699 252.43824 
L 115.739635 254.902853 
L 117.091021 254.902853 
L 117.436644 252.684701 
L 118.656693 252.684701 
L 119.002316 250.220088 
L 126.028829 250.220088 
L 126.374452 248.001935 
L 127.096804 248.001935 
L 127.376758 250.220088 
L 128.334133 250.220088 
L 128.610632 252.684701 
L 129.053029 252.684701 
L 129.346809 252.901449 
L 131.603726 252.901449 
L 131.949349 249.29292 
L 135.167098 249.29292 
L 135.46779 251.511072 
L 137.468946 251.511072 
L 137.631389 251.294324 
L 139.515034 251.294324 
L 139.8572 250.561466 
L 140.320335 250.561466 
L 140.406741 254.169996 
L 140.831857 252.198305 
L 141.654439 252.198305 
L 142.079556 247.665656 
L 142.587621 247.665656 
L 142.933244 245.693906 
L 143.109512 245.693906 
L 143.455135 243.677125 
L 144.056519 243.677125 
L 144.488547 240.888269 
L 144.682096 240.888269 
L 146.064587 229.745165 
L 146.755833 226.294109 
L 146.88717 226.294109 
L 147.232793 224.56888 
L 148.359523 215.07525 
L 148.705146 213.100993 
L 149.742015 201.443989 
L 150.087638 199.430434 
L 150.512754 199.676896 
L 151.204 196.098898 
L 151.549623 193.148797 
L 151.895246 188.724592 
L 152.586491 184.616993 
L 153.091101 184.370531 
L 153.170594 184.370531 
L 153.516217 182.152367 
L 153.86184 179.21087 
L 154.159075 179.21087 
L 154.504698 176.99135 
L 154.850321 173.308165 
L 155.195944 176.310885 
L 155.541567 174.038595 
L 155.876821 174.038595 
L 156.132582 176.010345 
L 156.478205 173.545731 
L 156.599173 175.562512 
L 157.100326 175.562512 
L 157.134889 178.351368 
L 157.542724 178.351368 
L 157.601479 181.263689 
L 157.933277 183.67133 
L 158.133739 187.767052 
L 158.403325 189.494473 
L 158.603786 192.945528 
L 158.970146 192.945528 
L 159.160239 194.670758 
L 159.350331 197.679723 
L 159.59918 197.679723 
L 159.706323 202.1521 
L 159.906784 204.164388 
L 159.941346 206.138644 
L 160.124527 210.067268 
L 160.152176 214.075422 
L 160.435587 219.809203 
L 160.528905 219.562742 
L 160.608399 219.562742 
L 160.760473 221.899516 
L 161.040427 223.873597 
L 161.38605 223.86364 
L 161.731673 226.157525 
L 162.077296 225.397335 
L 162.422919 223.982324 
L 162.768542 224.228785 
L 163.114164 221.946161 
L 163.459787 218.43193 
L 163.80541 216.460239 
L 164.151033 216.577491 
L 164.496656 217.300655 
L 165.187902 211.004782 
L 165.533525 210.621035 
L 165.879148 212.086068 
L 166.22477 211.327524 
L 166.936754 206.608691 
L 167.282376 203.145292 
L 167.627999 202.27151 
L 170.04736 183.194072 
L 170.392982 178.175035 
L 170.738605 176.131372 
L 171.429851 171.103447 
L 171.775474 165.547658 
L 172.121097 161.963667 
L 172.812343 157.74291 
L 175.231703 137.464163 
L 175.577326 135.245949 
L 176.268572 129.008354 
L 176.614194 126.790202 
L 177.30544 118.049612 
L 177.651063 112.706101 
L 177.996686 110.322009 
L 178.342309 109.322364 
L 178.687932 107.238176 
L 179.033555 106.426366 
L 179.379177 106.0408 
L 179.7248 105.201158 
L 180.070423 103.946194 
L 180.416046 105.176277 
L 180.761669 101.152707 
L 181.452915 98.273343 
L 181.798538 99.38636 
L 182.144161 99.298021 
L 182.489783 99.58785 
L 182.835406 96.228029 
L 183.181029 96.508581 
L 183.526652 96.547229 
L 183.872275 92.429939 
L 184.217898 90.558055 
L 184.563521 90.304459 
L 184.909144 88.717174 
L 185.254767 86.384501 
L 185.600389 84.84006 
L 185.946012 82.454339 
L 186.291635 83.924185 
L 186.637258 83.988546 
L 186.982881 83.537352 
L 187.328504 83.616308 
L 188.01975 79.854798 
L 188.710995 72.656477 
L 189.737495 76.993172 
L 190.083118 74.901841 
L 190.428741 76.170548 
L 190.774364 74.220324 
L 191.119987 74.834644 
L 191.46561 75.178731 
L 191.811233 72.754418 
L 192.156856 72.140823 
L 192.502478 70.194018 
L 192.848101 67.483076 
L 193.193724 66.364464 
L 193.539347 66.971227 
L 193.88497 63.678168 
L 194.230593 64.908853 
L 194.576216 65.18661 
L 194.921839 67.901237 
L 195.267462 68.06712 
L 195.578522 76.241332 
L 195.696034 83.721508 
L 196.228293 90.070429 
L 196.51516 92.354576 
L 196.943733 107.629285 
L 197.289355 108.482074 
L 197.634978 106.258719 
L 197.980601 108.954624 
L 198.326224 107.414871 
L 199.01747 109.26622 
L 199.363093 110.07657 
L 200.745584 114.82904 
L 200.890746 119.94616 
L 201.236369 119.22021 
L 201.581992 117.719426 
L 202.273237 113.25743 
L 202.61886 118.143051 
L 202.964483 119.691484 
L 203.310106 124.052465 
L 203.655729 126.424771 
L 204.001352 125.754766 
L 204.692598 121.494147 
L 205.290525 125.443843 
L 205.636148 123.108488 
L 205.981771 122.531576 
L 206.327394 123.344551 
L 206.673017 125.555921 
L 207.01864 126.162571 
L 207.364263 127.784861 
L 208.055508 128.264154 
L 208.401131 126.465856 
L 208.746754 127.474588 
L 209.438 128.414821 
L 209.783623 126.33433 
L 210.129246 125.071035 
L 210.474869 122.642864 
L 211.176483 116.856229 
L 211.387313 116.856229 
L 213.46105 94.332101 
L 213.806673 91.860263 
L 214.152296 92.774401 
L 214.497919 93.241534 
L 214.843542 93.925205 
L 215.189165 94.889148 
L 215.227183 98.240369 
L 215.572806 97.24835 
L 215.918429 96.763928 
L 216.264052 97.488541 
L 216.609675 98.665138 
L 216.955298 97.164718 
L 217.300921 92.628609 
L 217.646543 93.235774 
L 217.992166 95.776162 
L 218.337789 94.878237 
L 218.683412 96.912142 
L 219.720281 91.189174 
L 220.065904 92.468643 
L 220.757149 95.848124 
L 221.102772 94.026775 
L 221.448395 91.57578 
L 221.794018 88.225846 
L 222.139641 93.135634 
L 222.485264 93.758933 
L 222.830887 93.078162 
L 223.17651 93.537036 
L 223.522132 92.79624 
L 223.867755 93.062209 
L 224.213378 92.722932 
L 224.559001 92.967792 
L 225.250247 95.36592 
L 225.59587 93.136502 
L 225.941493 94.237881 
L 226.287116 96.925444 
L 226.632738 95.941705 
L 226.978361 96.086041 
L 227.323984 95.167307 
L 227.669607 95.369622 
L 228.360853 86.263981 
L 228.706476 87.818359 
L 229.052099 87.467701 
L 229.397722 89.493251 
L 229.743344 89.182685 
L 230.088967 92.11748 
L 230.43459 87.257827 
L 230.780213 89.433546 
L 231.125836 90.327197 
L 231.198417 95.606134 
L 231.492196 97.857349 
L 231.730676 97.857349 
L 232.297498 108.344787 
L 232.64312 108.672948 
L 233.334366 108.495829 
L 233.679989 107.234439 
L 234.025612 104.72829 
L 234.371235 108.790816 
L 234.716858 106.236734 
L 235.062481 105.398181 
L 235.753726 105.797609 
L 236.099349 105.535596 
L 236.444972 104.270613 
L 236.790595 102.258564 
L 237.481841 104.410391 
L 237.827464 104.395456 
L 238.518709 101.545961 
L 238.864332 99.39546 
L 239.209955 99.101091 
L 239.555578 98.570324 
L 239.901201 97.189167 
L 240.246824 100.205536 
L 240.93807 96.712166 
L 241.629315 98.127828 
L 241.750283 100.91828 
L 242.050975 102.940094 
L 242.396598 102.897252 
L 242.742221 100.254355 
L 243.087844 102.514236 
L 243.433467 100.373224 
L 244.124713 101.576542 
L 244.470336 101.830067 
L 244.815958 102.327275 
L 245.161581 100.906729 
L 245.507204 100.826506 
L 245.852827 98.645571 
L 246.19845 103.931685 
L 246.889696 104.255325 
L 247.926564 95.463159 
L 249.309056 80.352768 
L 249.654679 80.542938 
L 250.000302 80.114388 
L 250.345925 81.414768 
L 250.691548 80.460514 
L 251.03717 80.069293 
L 251.382793 80.012632 
L 251.728416 82.189189 
L 252.074039 82.409488 
L 252.419662 83.551792 
L 252.765285 82.732868 
L 253.110908 81.05085 
L 253.456531 81.87884 
L 253.802154 82.021526 
L 254.147776 79.007609 
L 254.493399 77.575452 
L 254.839022 77.521339 
L 255.184645 77.750373 
L 255.530268 79.745366 
L 255.875891 79.249104 
L 256.221514 79.268094 
L 256.567137 78.906188 
L 256.912759 79.792495 
L 257.258382 78.915526 
L 257.949628 81.922845 
L 258.295251 82.262314 
L 258.986497 75.408171 
L 259.33212 73.184198 
L 259.677743 75.326755 
L 260.023365 76.104484 
L 260.368988 75.722925 
L 260.714611 75.548558 
L 261.060234 74.956063 
L 261.405857 76.619667 
L 261.75148 71.738815 
L 262.097103 71.95248 
L 262.442726 71.624519 
L 262.788349 70.173458 
L 263.133971 71.531002 
L 263.479594 70.028632 
L 264.17084 68.438831 
L 264.516463 68.808163 
L 264.862086 69.752125 
L 265.207709 68.73091 
L 265.553332 68.317066 
L 265.898955 67.665334 
L 266.244577 68.829583 
L 266.5902 69.583792 
L 266.935823 67.013266 
L 267.281446 68.679685 
L 267.627069 68.637905 
L 267.972692 70.917466 
L 268.318315 71.308326 
L 268.663938 71.078166 
L 269.00956 71.236791 
L 269.355183 72.078663 
L 269.700806 68.121016 
L 270.046429 68.197304 
L 270.392052 68.034918 
L 270.737675 67.603876 
L 271.083298 68.817494 
L 271.774544 74.894985 
L 272.120166 76.034696 
L 272.465789 75.593863 
L 272.811412 75.692896 
L 273.157035 76.805457 
L 273.502658 74.588779 
L 273.848281 75.048306 
L 274.193904 74.823001 
L 274.539527 72.94756 
L 275.230772 71.011806 
L 275.576395 68.877828 
L 275.922018 72.183841 
L 276.267641 73.596148 
L 276.613264 71.967021 
L 276.958887 69.606922 
L 277.30451 71.340418 
L 277.650133 69.522083 
L 277.995756 71.925281 
L 278.341378 72.634742 
L 278.687001 70.518282 
L 279.032624 72.522688 
L 279.378247 70.088064 
L 279.72387 71.616137 
L 280.415116 69.939482 
L 280.760739 66.509277 
L 281.106362 67.271346 
L 281.797607 66.103171 
L 282.14323 63.20028 
L 282.834476 62.698669 
L 283.180099 63.605107 
L 283.871345 57.161631 
L 284.216967 58.319522 
L 284.56259 54.226207 
L 284.908213 53.785466 
L 285.253836 51.450146 
L 285.599459 51.358664 
L 285.945082 50.700307 
L 286.290705 48.281892 
L 286.636328 48.055126 
L 286.981951 52.529097 
L 287.327573 52.415838 
L 287.673196 49.60743 
L 288.018819 50.811751 
L 288.364442 51.028182 
L 288.710065 51.865581 
L 289.055688 51.505619 
L 289.401311 49.329843 
L 289.746934 49.77255 
L 290.092557 46.972164 
L 290.438179 47.013821 
L 290.783802 49.032451 
L 291.129425 48.443334 
L 291.820671 48.698671 
L 292.166294 49.537297 
L 292.85754 52.676367 
L 293.548785 50.702663 
L 293.894408 51.286468 
L 294.240031 51.573482 
L 294.585654 49.586802 
L 294.931277 50.460428 
L 295.2769 50.619322 
L 295.622523 49.452593 
L 295.968146 51.966773 
L 296.313768 52.381878 
L 296.659391 56.325849 
L 297.005014 54.116567 
L 297.350637 55.091832 
L 297.69626 55.302876 
L 298.041883 59.604933 
L 298.387506 57.022213 
L 298.733129 56.047091 
L 299.078752 54.267152 
L 299.424374 54.806156 
L 299.769997 54.627392 
L 300.11562 54.724772 
L 300.806866 56.635956 
L 301.152489 57.671442 
L 301.498112 54.896126 
L 301.843735 59.652325 
L 302.189358 58.730503 
L 302.53498 60.780384 
L 302.880603 60.866468 
L 303.226226 59.928278 
L 303.571849 62.331733 
L 304.263095 60.914084 
L 304.608718 63.30787 
L 304.954341 66.927079 
L 305.299964 65.344632 
L 305.517706 68.732586 
L 305.863329 65.979873 
L 306.208952 64.610095 
L 306.554575 65.033563 
L 306.900197 62.263961 
L 307.24582 64.883867 
L 307.591443 65.134439 
L 307.937066 63.021189 
L 308.282689 64.786128 
L 308.628312 63.461344 
L 308.973935 63.478798 
L 309.319558 65.514628 
L 309.665181 64.777213 
L 310.010803 65.468323 
L 310.356426 67.059187 
L 310.702049 67.39851 
L 311.047672 68.552787 
L 311.738918 73.354976 
L 312.084541 72.01133 
L 312.430164 68.14342 
L 312.775787 70.041322 
L 313.121409 68.884889 
L 313.467032 69.934602 
L 313.812655 70.243522 
L 314.158278 70.397548 
L 314.503901 69.331001 
L 314.849524 70.536552 
L 315.195147 69.127089 
L 315.54077 71.211632 
L 316.577638 78.840378 
L 316.923261 80.074969 
L 317.268884 79.889201 
L 317.614507 81.364433 
L 317.96013 80.80501 
L 318.305753 80.543751 
L 318.651376 82.383425 
L 318.996998 80.244226 
L 319.688244 81.420729 
L 320.033867 83.968748 
L 320.37949 83.39067 
L 320.725113 83.075234 
L 321.070736 84.217009 
L 321.416359 82.419859 
L 321.761982 81.338042 
L 322.453227 80.069165 
L 322.79885 75.217277 
L 323.144473 75.991745 
L 323.835719 79.711877 
L 324.181342 82.392019 
L 324.526965 78.952074 
L 324.872588 80.489596 
L 325.021205 85.048495 
L 325.270054 88.196347 
L 325.615677 99.619032 
L 325.9613 100.331663 
L 326.306923 97.754853 
L 326.652545 98.136693 
L 326.998168 96.164701 
L 327.177892 98.279719 
L 327.869138 90.371003 
L 328.214761 92.727721 
L 328.560384 93.900988 
L 328.906007 93.731962 
L 329.597252 96.397886 
L 329.942875 96.49599 
L 330.288498 95.16187 
L 330.634121 97.310532 
L 330.979744 95.781962 
L 331.67099 94.172643 
L 332.016613 94.029059 
L 332.362235 91.953576 
L 332.707858 91.997313 
L 333.053481 92.50024 
L 333.399104 92.461848 
L 333.744727 92.696805 
L 334.09035 95.819562 
L 334.435973 96.477448 
L 334.781596 98.766973 
L 335.127219 99.553331 
L 335.472841 97.32075 
L 335.818464 94.325762 
L 336.164087 93.906447 
L 336.50971 95.586683 
L 336.855333 93.702446 
L 337.200956 95.113102 
L 337.546579 97.267924 
L 338.237825 100.131268 
L 338.583447 101.814153 
L 338.92907 102.258572 
L 339.274693 102.326558 
L 339.620316 99.445023 
L 340.311562 97.317766 
L 340.657185 98.078417 
L 341.002808 97.689277 
L 341.497048 97.689277 
L 341.842671 93.396139 
L 342.101888 93.396139 
L 342.447511 88.500219 
L 342.793134 88.747646 
L 343.138757 87.583237 
L 343.48438 84.938194 
L 343.830003 87.18134 
L 344.175626 82.488097 
L 344.521249 83.638024 
L 344.866872 88.009573 
L 345.212494 86.947049 
L 345.558117 87.531699 
L 345.90374 85.796306 
L 346.249363 83.03547 
L 346.594986 81.536736 
L 346.940609 79.30302 
L 347.286232 83.024892 
L 347.631855 83.813049 
L 348.3231 89.268786 
L 348.668723 88.262122 
L 349.014346 87.908556 
L 349.359969 87.737155 
L 349.705592 85.594829 
L 350.396838 86.596726 
L 350.742461 83.798128 
L 351.088083 82.284754 
L 351.305826 85.744884 
L 351.651449 83.296315 
L 351.997072 82.799863 
L 352.342695 84.239787 
L 352.688317 84.292778 
L 353.03394 81.775782 
L 353.379563 82.57668 
L 353.725186 82.379506 
L 354.070809 81.799191 
L 354.416432 79.089868 
L 354.762055 78.975278 
L 355.107678 77.828289 
L 355.4533 78.750589 
L 355.798923 80.184871 
L 356.144546 79.874719 
L 356.490169 80.389368 
L 356.835792 78.988067 
L 357.181415 78.999168 
L 357.527038 80.75349 
L 357.872661 80.977148 
L 358.563906 75.172066 
L 358.909529 73.800753 
L 359.255152 71.321657 
L 359.600775 73.999393 
L 359.946398 74.306795 
L 360.292021 77.0863 
L 360.637644 78.468472 
L 360.983267 78.659551 
L 361.32889 79.114827 
L 361.674512 79.78323 
L 362.020135 78.510341 
L 362.365758 78.631738 
L 362.711381 79.763708 
L 363.057004 79.560254 
L 363.74825 82.648031 
L 364.093873 85.157636 
L 364.439496 85.093233 
L 364.785118 84.850436 
L 365.130741 83.021952 
L 365.476364 79.446604 
L 365.821987 81.21698 
L 366.16761 78.123177 
L 366.858856 81.208642 
L 367.204479 78.822869 
L 367.550102 79.856917 
L 367.895724 80.192765 
L 368.241347 81.395849 
L 368.58697 76.920101 
L 369.278216 80.317519 
L 369.623839 83.16297 
L 369.969462 82.737336 
L 370.315085 84.428083 
L 370.660707 81.478414 
L 371.00633 81.94323 
L 371.351953 80.281435 
L 371.697576 80.613472 
L 372.388822 77.981401 
L 372.734445 77.972649 
L 373.080068 77.793099 
L 373.771313 81.52566 
L 374.116936 81.710216 
L 374.462559 84.26459 
L 375.153805 82.409951 
L 375.499428 83.449321 
L 375.845051 82.052918 
L 376.190674 83.486216 
L 376.536297 82.693375 
L 376.881919 79.925959 
L 377.227542 79.500344 
L 377.573165 78.031279 
L 377.918788 77.347926 
L 378.264411 77.297069 
L 378.610034 79.517823 
L 378.955657 80.437149 
L 379.30128 80.27691 
L 379.992525 76.614762 
L 380.317411 80.100978 
L 380.663034 79.044608 
L 381.008657 75.647217 
L 381.35428 75.406651 
L 381.699902 75.023371 
L 382.391148 71.648741 
L 382.736771 72.553385 
L 383.082394 72.511038 
L 383.428017 76.047524 
L 383.77364 73.530407 
L 384.119263 74.379696 
L 384.464886 76.099956 
L 384.810508 77.002426 
L 385.156131 79.169914 
L 385.847377 75.921095 
L 386.193 76.580889 
L 386.884246 72.129047 
L 387.575492 74.478206 
L 387.921114 77.047485 
L 388.266737 78.030843 
L 388.61236 77.628379 
L 388.957983 78.83618 
L 389.303606 79.486915 
L 389.649229 79.68157 
L 389.994852 78.420592 
L 391.03172 70.648995 
L 391.377343 72.781495 
L 391.722966 69.922701 
L 392.068589 71.02443 
L 392.414212 71.307587 
L 392.759835 71.150342 
L 393.105458 71.248204 
L 393.451081 70.899149 
L 393.796703 69.344833 
L 394.142326 71.869216 
L 394.487949 70.961385 
L 395.179195 75.118459 
L 395.524818 75.309809 
L 396.216064 67.316559 
L 396.561687 67.344298 
L 396.907309 70.211369 
L 397.252932 70.745593 
L 397.598555 68.829142 
L 397.944178 67.878651 
L 398.289801 70.260966 
L 398.635424 70.552215 
L 398.981047 71.003256 
L 399.32667 73.260165 
L 399.672293 73.518735 
L 400.017915 76.435536 
L 400.363538 77.436943 
L 400.709161 75.019997 
L 401.054784 77.189082 
L 401.400407 76.76936 
L 401.74603 74.766445 
L 402.091653 73.79034 
L 402.157321 76.209982 
L 402.502944 74.945366 
L 402.848567 77.529795 
L 403.19419 73.873765 
L 403.539813 74.479372 
L 403.885436 72.410639 
L 404.186127 76.730437 
L 404.877373 73.829278 
L 405.222996 74.832307 
L 405.568619 75.416963 
L 405.914242 73.789273 
L 406.259865 74.229416 
L 406.605488 76.558954 
L 406.951111 77.424282 
L 407.296733 79.386504 
L 407.642356 80.693974 
L 408.292127 85.289658 
L 408.392358 90.169805 
L 408.969548 96.39495 
L 409.176922 98.825883 
L 409.21494 102.616448 
L 409.474158 107.196657 
L 409.712637 114.484127 
L 410.05826 114.58528 
L 410.749506 110.857404 
L 411.095129 110.467199 
L 411.274853 117.030081 
L 411.620476 119.411514 
L 411.966099 118.992445 
L 412.311721 118.000978 
L 412.657344 119.917107 
L 413.002967 121.074876 
L 413.34859 124.063299 
L 413.694213 122.001687 
L 414.039836 121.919716 
L 414.385459 119.124487 
L 414.731082 114.519795 
L 415.076705 114.343477 
L 415.76795 106.097217 
L 416.113573 107.387043 
L 416.459196 106.911048 
L 416.804819 105.828422 
L 417.150442 106.112767 
L 417.496065 107.060243 
L 417.841688 104.401388 
L 418.187311 105.737541 
L 418.532933 105.01577 
L 419.224179 108.284779 
L 419.569802 112.12303 
L 419.915425 110.096302 
L 420.261048 110.421771 
L 420.606671 109.484003 
L 420.952294 108.989168 
L 421.225336 118.697345 
L 421.570959 116.201759 
L 421.916581 115.120604 
L 422.262204 113.124274 
L 422.95345 111.308571 
L 423.644696 105.321973 
L 425.027187 86.802268 
L 425.37281 82.680748 
L 425.718433 80.371112 
L 426.03295 80.371112 
L 426.378573 79.082706 
L 426.724196 79.659591 
L 427.069819 80.980572 
L 427.415442 80.087383 
L 427.761064 76.21324 
L 428.106687 76.204562 
L 428.797933 75.572739 
L 429.143556 73.10707 
L 429.489179 69.291528 
L 429.489179 69.291528 
" style="fill:none;stroke:#edd1cb;stroke-linecap:round;stroke-width:1.5;"/>
   </g>
   <g id="line2d_17">
    <path clip-path="url(#pdf419d4de7)" d="M 91.846725 282.535458 
L 91.891656 273.169926 
L 92.811013 237.009579 
L 92.9147 231.587429 
L 93.184286 225.86794 
L 93.249954 221.924559 
L 93.516084 221.003712 
L 93.861707 223.438985 
L 93.882444 228.008963 
L 94.089818 228.008963 
L 94.203873 229.734192 
L 94.929682 229.65858 
L 94.978069 234.250407 
L 95.354798 234.250407 
L 95.524153 240.073867 
L 96.353648 240.073867 
L 96.554109 243.321738 
L 96.9654 240.857124 
L 97.746508 240.857124 
L 97.805264 245.537265 
L 98.085218 247.755474 
L 99.232686 247.755474 
L 99.643978 245.29086 
L 100.062181 243.565631 
L 101.690065 243.565631 
L 101.779927 245.783783 
L 102.30873 245.783783 
L 102.353661 248.248397 
L 104.873252 248.248397 
L 105.139382 250.71301 
L 106.428555 250.71301 
L 106.774178 248.248397 
L 108.688929 248.248397 
L 108.771878 250.71301 
L 109.048376 252.43824 
L 109.470036 252.684701 
L 115.255763 252.684701 
L 115.601386 250.22115 
L 116.831804 250.22115 
L 117.246551 250.467611 
L 118.314526 250.467611 
L 118.366369 250.22115 
L 119.600243 250.22115 
L 119.945866 247.756536 
L 120.291489 243.820191 
L 122.773061 243.820191 
L 123.20509 239.113412 
L 124.235046 239.113412 
L 124.573756 244.041577 
L 125.427445 244.041577 
L 125.572607 243.795116 
L 126.6786 243.795116 
L 127.131366 241.576964 
L 127.217772 241.576964 
L 127.563394 242.069886 
L 127.691275 246.006232 
L 130.964324 246.006232 
L 131.099117 250.71301 
L 135.433228 250.71301 
L 135.485071 252.931163 
L 135.799588 252.931163 
L 135.996593 254.902853 
L 137.157886 254.902853 
L 137.558808 252.43824 
L 140.551902 252.43824 
L 140.897525 248.073384 
L 141.308817 248.073384 
L 141.744301 246.338341 
L 142.041537 246.338341 
L 142.756976 241.655575 
L 149.887177 241.655575 
L 150.129113 246.02043 
L 150.581879 246.02043 
L 150.671741 247.755474 
L 151.086488 247.755474 
L 151.338793 250.220088 
L 151.642941 252.43824 
L 154.000089 252.43824 
L 154.345712 249.819997 
L 154.653316 252.530936 
L 155.157926 252.530936 
L 155.634885 252.777398 
L 156.692491 252.777398 
L 157.038114 250.312784 
L 162.526606 250.312784 
L 162.661398 252.931027 
L 162.941353 252.684701 
L 163.338819 252.684701 
L 163.3561 252.43824 
L 165.861866 252.43824 
L 166.207489 247.616586 
L 166.995509 247.616586 
L 167.341132 244.302338 
L 167.541594 244.302338 
L 167.887217 242.32575 
L 169.99206 242.32575 
L 170.320402 241.614475 
L 170.959804 241.614475 
L 171.305427 237.634309 
L 171.602663 237.634309 
L 171.982848 236.152852 
L 172.978242 236.152852 
L 173.323865 231.003133 
L 173.669487 229.031442 
L 174.108428 229.031442 
L 174.454051 226.81329 
L 175.162578 217.452537 
L 175.494376 219.917151 
L 175.839999 218.357871 
L 176.185622 215.678782 
L 176.57272 218.775132 
L 176.918343 217.789287 
L 177.609588 213.844577 
L 177.723644 213.844577 
L 178.069267 209.464266 
L 178.41489 206.87654 
L 178.480558 210.190787 
L 178.826181 207.7445 
L 179.451758 207.749397 
L 179.797381 205.574684 
L 180.581945 197.744503 
L 180.927568 196.265735 
L 181.069273 196.265735 
L 181.414896 193.893576 
L 181.826188 194.140038 
L 181.964437 194.140038 
L 182.095773 194.851313 
L 182.441396 191.600088 
L 183.132642 187.97127 
L 183.19831 187.97127 
L 183.543933 183.35007 
L 183.889556 183.180478 
L 184.753613 180.371908 
L 184.867669 180.371908 
L 185.590021 171.426277 
L 185.935644 173.474686 
L 185.956381 175.446377 
L 186.302004 173.965319 
L 186.761682 173.965319 
L 186.906844 180.861469 
L 187.252467 178.86558 
L 187.59809 179.576246 
L 187.943713 178.242085 
L 188.030118 182.480453 
L 188.375741 182.565764 
L 189.066987 178.239406 
L 189.163761 180.212425 
L 189.509384 179.740439 
L 189.855007 178.013679 
L 190.20063 178.752681 
L 190.546253 179.00857 
L 190.891876 176.957705 
L 191.237499 177.258539 
L 191.583122 176.312792 
L 191.928744 174.453791 
L 192.274367 174.903016 
L 192.61999 174.729362 
L 192.965613 171.503777 
L 193.311236 171.942118 
L 193.363079 173.420886 
L 193.708702 171.202722 
L 193.750177 173.57488 
L 194.441423 167.787425 
L 194.662621 167.787425 
L 195.008244 165.568926 
L 195.69949 165.412092 
L 196.045113 162.776969 
L 196.390736 158.540153 
L 196.736359 158.613125 
L 197.081982 158.048638 
L 197.427605 155.869798 
L 197.773227 151.464647 
L 198.11885 152.079262 
L 198.464473 149.400444 
L 199.155719 141.099298 
L 199.501342 141.483122 
L 199.846965 143.590519 
L 200.38268 143.616629 
L 200.728303 140.258988 
L 201.073926 139.494437 
L 201.765172 132.810686 
L 202.110795 130.751859 
L 202.456418 124.050722 
L 202.80204 123.828459 
L 203.147663 124.759604 
L 203.493286 123.645744 
L 203.838909 119.515629 
L 204.184532 117.171002 
L 204.530155 116.590586 
L 204.772091 118.710402 
L 205.024396 121.902789 
L 205.238682 121.902789 
L 206.27555 117.722921 
L 206.621173 118.081556 
L 206.966796 115.692668 
L 207.312419 115.61989 
L 207.658042 114.232872 
L 208.003665 113.873721 
L 208.349288 112.421155 
L 208.694911 112.714668 
L 209.386156 111.912096 
L 209.731779 110.001256 
L 210.077402 108.889405 
L 210.423025 104.581349 
L 210.768648 103.055307 
L 211.114271 103.334206 
L 211.459894 98.94206 
L 211.805517 98.942338 
L 212.15114 100.031424 
L 212.496762 96.352372 
L 212.842385 98.248118 
L 213.018653 102.484934 
L 213.364276 104.804784 
L 213.709899 102.770519 
L 214.401145 104.899494 
L 214.746767 99.990373 
L 215.09239 98.191999 
L 215.783636 101.613223 
L 216.129259 101.306659 
L 216.474882 101.306659 
L 216.820505 98.927407 
L 217.166128 98.63294 
L 217.51175 99.63417 
L 217.857373 99.372881 
L 218.202996 100.60193 
L 218.925348 109.864591 
L 219.270971 107.30002 
L 219.616594 107.992584 
L 219.962217 107.751831 
L 220.30784 108.301782 
L 220.653463 108.359338 
L 220.999085 108.016649 
L 222.035954 100.353169 
L 222.381577 101.756311 
L 222.530195 105.272797 
L 223.221441 104.690721 
L 223.567063 106.912189 
L 223.912686 105.06115 
L 224.258309 105.439165 
L 224.603932 104.344618 
L 224.949555 104.427799 
L 225.295178 102.691819 
L 225.640801 102.686532 
L 225.986424 104.673265 
L 226.332047 103.793395 
L 226.677669 105.394255 
L 227.023292 106.035548 
L 227.368915 108.325154 
L 227.714538 107.115332 
L 228.060161 109.279825 
L 228.098179 111.498046 
L 228.443802 111.372982 
L 228.789425 112.871883 
L 229.826294 104.796813 
L 230.171917 107.41094 
L 230.51754 107.634394 
L 230.863163 106.949343 
L 231.208785 111.52998 
L 231.554408 114.034185 
L 231.900031 109.373073 
L 232.245654 109.772141 
L 232.591277 111.803739 
L 232.9369 109.333787 
L 232.985287 111.713039 
L 233.33091 112.700836 
L 234.022156 110.194674 
L 234.367779 107.866807 
L 235.059024 102.400218 
L 235.404647 99.991945 
L 235.75027 102.802978 
L 236.095893 102.835395 
L 236.441516 102.517677 
L 236.562484 106.097841 
L 236.908107 105.667063 
L 237.599353 106.228833 
L 237.944976 105.623459 
L 238.290598 104.548107 
L 238.636221 102.944272 
L 238.981844 100.72518 
L 239.327467 100.652597 
L 239.67309 100.918643 
L 240.018713 98.530008 
L 240.364336 97.441972 
L 240.709959 98.95996 
L 241.055581 99.872937 
L 241.401204 99.110331 
L 241.746827 100.00873 
L 242.09245 98.917882 
L 242.438073 99.497657 
L 243.129319 95.736199 
L 243.474942 97.183888 
L 243.820565 95.446651 
L 244.166187 97.199634 
L 244.51181 94.663197 
L 244.857433 87.820855 
L 245.203056 86.483571 
L 245.548679 87.734429 
L 245.894302 90.343124 
L 246.239925 89.156136 
L 246.585548 88.73137 
L 246.931171 89.752992 
L 247.622416 88.726731 
L 247.968039 84.800503 
L 248.313662 84.330194 
L 248.659285 87.344463 
L 249.004908 84.089231 
L 249.350531 82.0127 
L 249.696154 83.746428 
L 250.041777 79.470281 
L 250.387399 79.288168 
L 250.733022 79.858421 
L 251.078645 81.293011 
L 251.424268 81.311853 
L 251.769891 81.854521 
L 252.115514 79.567769 
L 252.461137 80.294201 
L 252.80676 76.20107 
L 253.152382 73.702669 
L 253.498005 72.177935 
L 253.843628 69.27451 
L 254.189251 69.805614 
L 254.534874 67.323978 
L 254.880497 67.058871 
L 255.22612 68.395064 
L 255.571743 66.809652 
L 255.917366 68.727711 
L 256.262988 67.448443 
L 256.608611 69.289576 
L 256.954234 67.734072 
L 257.299857 67.780399 
L 257.64548 70.961119 
L 258.336726 69.011141 
L 258.682349 68.380119 
L 259.027972 66.655259 
L 259.373594 69.095009 
L 260.06484 64.145067 
L 260.410463 63.844998 
L 260.756086 63.814508 
L 261.101709 65.06844 
L 261.447332 62.604861 
L 261.792955 64.908848 
L 262.4842 67.833315 
L 262.829823 65.119635 
L 263.175446 64.443926 
L 263.521069 66.785427 
L 263.866692 67.987205 
L 264.557938 63.014086 
L 264.903561 62.722443 
L 265.249183 65.577298 
L 265.940429 60.567727 
L 266.286052 63.000496 
L 266.631675 63.210069 
L 266.977298 63.056817 
L 267.322921 64.569668 
L 267.668544 64.680251 
L 268.014167 65.56381 
L 268.359789 65.936021 
L 268.705412 68.723876 
L 269.051035 67.310555 
L 269.396658 69.105679 
L 269.742281 70.258522 
L 270.087904 74.10063 
L 270.433527 74.493408 
L 270.77915 74.433698 
L 271.124773 74.508358 
L 271.470395 74.442277 
L 271.816018 76.761836 
L 272.507264 71.735397 
L 272.852887 72.677067 
L 273.19851 72.62179 
L 273.544133 71.443311 
L 273.889756 69.030538 
L 274.235379 67.742927 
L 274.581001 65.271117 
L 274.926624 63.71284 
L 275.61787 65.973665 
L 275.676626 70.462168 
L 276.022249 72.457341 
L 276.367872 72.33257 
L 276.713495 73.881077 
L 277.059118 76.789092 
L 277.40474 75.815335 
L 277.750363 73.674698 
L 278.095986 72.881277 
L 278.441609 74.127142 
L 278.787232 72.145265 
L 279.132855 74.24372 
L 279.478478 72.104367 
L 279.824101 74.752611 
L 280.169723 74.91515 
L 280.515346 71.719404 
L 280.860969 73.461307 
L 281.206592 76.966271 
L 281.234242 81.785926 
L 281.393228 86.668042 
L 281.738851 88.169394 
L 281.83217 92.946231 
L 282.08793 99.515871 
L 282.433553 99.973187 
L 282.64784 107.458995 
L 282.813739 112.67569 
L 283.048762 114.77441 
L 283.394385 113.509227 
L 283.740008 113.027255 
L 284.085631 113.742609 
L 284.431254 112.597118 
L 284.776877 112.193338 
L 285.122499 109.478475 
L 285.468122 111.608424 
L 285.813745 112.306114 
L 286.159368 108.461607 
L 286.504991 108.029856 
L 287.196237 108.274188 
L 287.54186 110.46385 
L 287.887483 110.587034 
L 288.233105 107.948852 
L 288.578728 108.351161 
L 288.924351 108.239299 
L 289.269974 109.602613 
L 289.615597 113.742666 
L 289.96122 115.142049 
L 290.306843 113.845918 
L 290.652466 112.09639 
L 290.998088 108.210343 
L 291.343711 109.11975 
L 292.034957 108.023207 
L 292.38058 108.39368 
L 292.726203 109.370855 
L 293.071826 111.242983 
L 293.417449 111.330386 
L 293.763072 112.060665 
L 294.454317 111.596593 
L 294.79994 111.755992 
L 295.145563 111.552945 
L 295.491186 110.092797 
L 295.836809 111.897269 
L 296.182432 111.638199 
L 296.528055 109.370882 
L 297.2193 100.516127 
L 297.564923 99.229416 
L 297.910546 94.669667 
L 298.256169 92.001412 
L 298.601792 92.560926 
L 298.947415 90.165134 
L 299.984284 78.214341 
L 300.329906 75.148234 
L 300.675529 76.186319 
L 301.021152 71.43567 
L 301.366775 70.700013 
L 301.712398 72.626581 
L 302.058021 72.559813 
L 302.403644 74.702065 
L 302.749267 73.048624 
L 303.09489 72.285915 
L 303.440512 76.814315 
L 303.786135 77.438126 
L 304.131758 75.293042 
L 304.477381 76.587188 
L 304.823004 76.81395 
L 305.168627 78.414653 
L 305.51425 78.417226 
L 305.859873 80.471673 
L 306.205495 81.15236 
L 306.551118 82.195143 
L 306.896741 81.049628 
L 307.587987 80.375526 
L 307.93361 78.556055 
L 308.279233 77.803746 
L 308.624856 75.69503 
L 308.970479 74.311842 
L 309.316101 75.545283 
L 309.661724 74.733225 
L 310.007347 76.14897 
L 310.35297 76.280043 
L 310.698593 77.066987 
L 311.044216 75.893304 
L 311.389839 77.545497 
L 311.735462 77.77234 
L 312.426707 74.601782 
L 313.117953 75.796452 
L 313.463576 74.94009 
L 313.809199 77.21951 
L 314.154822 76.913151 
L 314.846068 80.297965 
L 315.191691 80.230272 
L 315.537313 80.545387 
L 315.882936 79.964954 
L 316.228559 80.122009 
L 316.574182 79.512739 
L 316.919805 77.759401 
L 317.265428 77.04971 
L 317.611051 77.686653 
L 317.956674 75.684218 
L 318.302296 80.422248 
L 318.647919 81.868929 
L 318.993542 77.632431 
L 319.339165 77.792596 
L 319.684788 78.266512 
L 319.740088 82.211589 
L 320.085711 80.861632 
L 320.776956 77.630689 
L 321.122579 78.398532 
L 321.468202 78.574633 
L 321.813825 78.966549 
L 322.159448 78.974588 
L 323.887562 75.141774 
L 324.233185 72.686575 
L 324.578808 73.676992 
L 324.924431 75.556938 
L 325.270054 76.00046 
L 325.615677 77.324155 
L 325.9613 77.247343 
L 326.306923 74.887295 
L 326.652545 77.076468 
L 326.998168 77.19425 
L 327.343791 75.000096 
L 327.689414 74.653687 
L 328.035037 75.801539 
L 328.726283 73.440017 
L 329.071906 77.525257 
L 329.417529 77.829534 
L 329.763151 79.386753 
L 330.80002 74.378826 
L 331.145643 74.460463 
L 332.182512 68.100937 
L 332.528134 66.531989 
L 332.873757 65.543351 
L 333.21938 64.892382 
L 333.565003 66.261175 
L 333.910626 66.911803 
L 334.256249 65.38895 
L 334.601872 63.01932 
L 334.947495 62.376665 
L 335.63874 58.180946 
L 335.984363 60.812725 
L 336.329986 59.99192 
L 336.675609 57.773521 
L 337.021232 54.184787 
L 337.366855 54.494212 
L 337.712478 54.159005 
L 338.749346 50.184239 
L 339.094969 48.355488 
L 339.440592 45.707869 
L 339.786215 46.276029 
L 340.131838 45.159739 
L 340.477461 46.173294 
L 340.823084 45.481527 
L 341.51433 49.783303 
L 341.859952 47.957162 
L 342.205575 49.495019 
L 342.551198 48.69592 
L 342.896821 47.515432 
L 343.242444 45.514757 
L 343.588067 44.544552 
L 343.93369 44.244998 
L 344.279313 44.263926 
L 344.624935 41.870264 
L 345.316181 41.506063 
L 345.661804 41.003043 
L 346.007427 42.836543 
L 346.35305 40.905841 
L 346.698673 43.117915 
L 347.044296 40.522645 
L 347.389919 40.38686 
L 347.735541 40.574732 
L 348.081164 39.950909 
L 348.426787 44.440548 
L 348.77241 46.098094 
L 349.118033 48.7076 
L 349.297757 54.48685 
L 349.629555 58.408938 
L 349.975178 59.387468 
L 350.320801 59.549046 
L 350.666424 58.835126 
L 351.012046 59.232136 
L 351.357669 63.021585 
L 351.703292 63.986506 
L 352.048915 64.184422 
L 352.394538 64.691558 
L 352.740161 64.309191 
L 353.085784 64.417355 
L 353.431407 63.722014 
L 353.77703 64.192329 
L 354.122652 62.498446 
L 354.468275 65.31897 
L 354.813898 67.052012 
L 355.159521 68.143203 
L 355.505144 70.985104 
L 356.542013 75.834589 
L 356.887635 78.35688 
L 357.233258 78.708597 
L 357.578881 80.525096 
L 357.924504 80.299084 
L 358.270127 77.793999 
L 358.61575 76.272829 
L 358.961373 76.832437 
L 359.306996 76.281364 
L 359.652619 77.519591 
L 360.343864 81.379632 
L 360.689487 82.663922 
L 361.03511 82.949544 
L 361.380733 82.893965 
L 361.726356 87.637163 
L 362.071979 87.052046 
L 362.417602 84.855336 
L 362.763225 85.246199 
L 363.108847 83.397212 
L 363.45447 83.042519 
L 363.800093 81.43534 
L 364.145716 84.013067 
L 364.491339 85.015267 
L 364.836962 84.639081 
L 365.182585 84.604485 
L 365.528208 79.614786 
L 365.873831 80.319437 
L 366.219453 79.796367 
L 366.565076 75.305289 
L 367.601945 68.698838 
L 367.947568 68.132216 
L 368.293191 68.299989 
L 368.638814 66.380854 
L 368.984436 66.847279 
L 369.330059 67.073198 
L 369.675682 66.542559 
L 370.021305 67.296874 
L 370.366928 65.940385 
L 371.403797 67.645415 
L 372.095042 64.793938 
L 372.440665 64.500218 
L 372.786288 64.421875 
L 373.477534 61.818391 
L 373.823157 62.181093 
L 374.16878 58.652382 
L 374.514403 59.70006 
L 374.860026 60.330631 
L 375.205648 62.141768 
L 375.551271 65.387516 
L 375.896894 67.183189 
L 376.242517 67.193614 
L 376.58814 68.005354 
L 376.933763 68.498447 
L 377.279386 67.869576 
L 378.316254 66.793654 
L 379.0075 61.686985 
L 379.353123 61.268858 
L 379.698746 61.607809 
L 380.735615 65.118143 
L 381.081237 66.211495 
L 381.42686 63.258403 
L 381.772483 65.101128 
L 382.809352 73.319655 
L 383.154975 72.565028 
L 383.500598 73.416014 
L 383.846221 75.596862 
L 384.191843 75.123923 
L 384.537466 77.757106 
L 384.883089 77.545654 
L 385.228712 77.516929 
L 385.574335 76.921526 
L 385.919958 76.628813 
L 386.265581 75.451859 
L 386.611204 74.995906 
L 386.956827 75.778751 
L 387.302449 75.259713 
L 387.993695 80.382548 
L 388.339318 81.847122 
L 389.030564 86.92172 
L 389.376187 88.000609 
L 389.72181 87.58004 
L 390.413055 82.966981 
L 390.758678 83.863334 
L 391.104301 80.832015 
L 391.449924 82.772809 
L 391.795547 82.657813 
L 392.486793 76.4918 
L 392.832416 73.457521 
L 393.178039 73.397303 
L 393.523661 75.599403 
L 393.869284 75.685021 
L 394.214907 74.332493 
L 394.56053 73.945574 
L 395.251776 78.684239 
L 395.597399 77.531887 
L 395.943022 79.800389 
L 396.288644 79.982297 
L 396.634267 81.824022 
L 397.325513 76.03926 
L 397.671136 74.97106 
L 398.016759 75.410025 
L 398.362382 75.182578 
L 398.708005 76.742121 
L 399.053628 73.805155 
L 399.744873 70.984215 
L 400.090496 70.812988 
L 400.436119 72.099191 
L 400.781742 70.575821 
L 401.127365 68.288876 
L 401.472988 67.909119 
L 401.818611 65.449696 
L 402.164234 66.337992 
L 402.509856 68.558187 
L 402.623912 73.482961 
L 402.886585 77.981033 
L 403.232208 76.886866 
L 403.577831 77.011969 
L 403.923454 77.98003 
L 404.269077 78.197596 
L 404.6147 77.648843 
L 405.651568 70.70021 
L 405.997191 67.197432 
L 406.342814 66.719704 
L 406.688437 68.194201 
L 407.03406 70.751079 
L 407.379683 75.083237 
L 407.725306 72.807659 
L 408.070929 73.955679 
L 408.416552 74.232376 
L 408.762174 72.427672 
L 409.107797 74.45446 
L 409.45342 75.765506 
L 409.799043 78.373489 
L 410.144666 78.167905 
L 410.490289 77.69344 
L 410.504114 79.753194 
L 410.915405 88.084727 
L 411.184991 90.968788 
L 411.247203 96.819879 
L 411.468402 99.51974 
L 411.648126 104.25033 
L 411.993748 101.727977 
L 412.684994 108.275305 
L 413.030617 110.069203 
L 413.37624 110.014188 
L 414.413109 111.985931 
L 414.758732 111.546695 
L 415.104354 112.603918 
L 415.449977 110.077048 
L 415.7956 109.905901 
L 416.141223 108.767927 
L 416.486846 110.928328 
L 416.832469 111.571403 
L 417.178092 114.819266 
L 417.523715 116.141607 
L 417.869337 115.977496 
L 418.21496 113.955293 
L 418.560583 110.586166 
L 418.906206 113.946871 
L 419.251829 116.065002 
L 419.597452 114.103421 
L 419.943075 116.249927 
L 420.288698 114.037327 
L 420.634321 113.597549 
L 420.979943 115.396707 
L 421.671189 116.829621 
L 422.016812 116.180302 
L 422.362435 116.466847 
L 422.708058 115.495755 
L 423.053681 115.696804 
L 423.399304 117.53123 
L 423.744927 120.020022 
L 424.090549 120.688213 
L 424.436172 123.109284 
L 424.781795 121.910817 
L 425.127418 124.254117 
L 425.473041 121.849154 
L 425.818664 122.107007 
L 426.164287 121.29142 
L 426.855533 114.134835 
L 428.583647 95.49427 
L 428.92927 92.444786 
L 429.274893 94.219648 
L 429.274893 94.219648 
" style="fill:none;stroke:#c8879e;stroke-linecap:round;stroke-width:1.5;"/>
   </g>
   <g id="line2d_18">
    <path clip-path="url(#pdf419d4de7)" d="M 92.285666 268.129405 
L 92.517234 258.763875 
L 92.658939 238.061121 
L 92.88705 234.077149 
L 93.167005 227.176231 
L 93.460784 223.485862 
L 93.875532 223.732323 
L 94.338666 229.81531 
L 94.736133 229.81531 
L 94.763783 234.58538 
L 95.067931 237.049993 
L 95.289129 237.049993 
L 95.676227 239.268742 
L 96.028762 239.268742 
L 96.180836 239.036344 
L 96.464247 239.036344 
L 96.65434 243.955513 
L 96.958488 243.46259 
L 97.929688 243.46259 
L 98.423929 250.466549 
L 100.342136 250.466549 
L 100.418173 250.220088 
L 100.635915 252.684701 
L 100.826008 252.684701 
L 101.026469 254.902853 
L 104.168181 254.902853 
L 104.603666 250.091442 
L 105.281087 250.091442 
L 105.668185 250.337904 
L 105.830627 250.337904 
L 106.17625 248.238001 
L 106.338693 248.238001 
L 106.684316 243.329094 
L 106.853671 243.329094 
L 107.199294 240.945471 
L 107.544917 241.191932 
L 107.89054 237.637979 
L 108.218881 237.884438 
L 109.642848 237.884438 
L 110.776491 224.06806 
L 111.173957 222.589292 
L 111.51958 218.036165 
L 111.796078 218.036165 
L 112.224651 214.91453 
L 112.300688 214.91453 
L 113.70046 205.741405 
L 113.72811 205.741405 
L 114.073733 203.780522 
L 114.419356 200.420115 
L 115.552999 195.241533 
L 115.867516 195.487994 
L 116.320282 193.269842 
L 116.389407 193.269842 
L 116.437794 198.081253 
L 116.783417 193.354888 
L 117.474662 187.964542 
L 117.820285 183.77144 
L 118.165908 181.915061 
L 118.511531 178.372571 
L 118.857154 176.882251 
L 119.5484 172.34509 
L 119.894023 175.528286 
L 120.585268 167.160425 
L 120.930891 166.973711 
L 121.276514 164.755559 
L 121.622137 166.337818 
L 121.978129 166.09136 
L 122.323751 162.100909 
L 123.41592 155.793013 
L 123.588731 160.339708 
L 123.934354 160.891594 
L 124.279977 156.996605 
L 124.6256 159.129528 
L 124.971223 158.299708 
L 125.195878 158.299708 
L 125.455095 162.852835 
L 125.800718 160.574844 
L 126.146341 159.092949 
L 126.837586 154.866804 
L 126.906711 157.307003 
L 127.252334 157.05826 
L 127.49427 157.05826 
L 127.563394 159.769867 
L 127.909017 158.316149 
L 128.088741 158.316149 
L 128.434364 155.672595 
L 128.779987 154.97804 
L 129.12561 154.731578 
L 129.471233 152.854615 
L 130.508101 145.011702 
L 130.853724 142.697572 
L 131.199347 137.956324 
L 131.890593 132.420215 
L 132.236216 132.011131 
L 132.581839 130.935357 
L 132.927462 131.551759 
L 133.273084 133.561578 
L 133.618707 131.470286 
L 133.96433 132.764275 
L 134.102579 134.254595 
L 134.75235 138.980822 
L 135.097973 138.24824 
L 135.443596 138.0419 
L 135.789219 137.599305 
L 136.134842 136.027463 
L 136.480465 135.735248 
L 137.171711 131.742912 
L 137.517334 127.059276 
L 137.862956 126.552271 
L 138.208579 124.711293 
L 138.554202 124.369288 
L 138.899825 118.599682 
L 139.245448 118.730817 
L 139.591071 113.672841 
L 139.936694 113.545393 
L 140.282317 112.99065 
L 140.62794 111.937546 
L 140.973562 110.343498 
L 141.253517 110.589939 
L 141.59914 105.766047 
L 141.944763 105.001869 
L 142.290386 106.682787 
L 142.636008 106.543147 
L 143.012737 106.550171 
L 143.35836 105.720021 
L 144.049606 100.221569 
L 144.395229 100.173336 
L 144.740852 97.375292 
L 145.086475 97.265235 
L 145.432098 96.884598 
L 145.777721 94.602775 
L 146.123343 93.942034 
L 146.233943 99.053443 
L 146.579566 97.02705 
L 146.925188 97.425805 
L 147.270811 97.372808 
L 147.616434 98.557841 
L 147.962057 99.023991 
L 148.30768 97.160489 
L 148.653303 100.156158 
L 148.998926 101.536083 
L 149.344549 101.241201 
L 149.690172 98.419894 
L 150.035794 98.678905 
L 150.381417 97.60479 
L 150.616441 97.60479 
L 150.962064 95.251362 
L 151.307687 90.119137 
L 151.65331 90.359237 
L 151.998932 92.289794 
L 152.690178 90.975482 
L 153.035801 90.751582 
L 153.381424 92.19989 
L 153.727047 90.593878 
L 154.07267 90.882655 
L 154.418293 92.503769 
L 155.109538 92.734437 
L 155.455161 93.830394 
L 155.800784 92.854686 
L 156.146407 95.264161 
L 156.49203 95.06048 
L 156.837653 95.013199 
L 157.183276 90.760908 
L 157.528899 91.459234 
L 157.874522 86.843017 
L 158.220144 86.756768 
L 158.91139 87.554026 
L 159.257013 87.493902 
L 159.602636 86.557965 
L 159.948259 82.549325 
L 160.293882 80.973722 
L 160.639505 80.493135 
L 160.985127 80.346557 
L 161.33075 78.972323 
L 161.676373 78.948256 
L 162.021996 81.407324 
L 163.058865 86.472877 
L 163.404488 84.058014 
L 163.750111 83.66963 
L 164.095733 83.592232 
L 164.441356 85.911694 
L 164.786979 85.815572 
L 165.132602 82.96238 
L 165.478225 85.435304 
L 165.823848 82.585269 
L 166.515094 82.668553 
L 166.860717 85.341745 
L 167.206339 84.393771 
L 167.551962 82.83076 
L 167.897585 78.183314 
L 168.588831 79.61486 
L 168.934454 79.60478 
L 169.280077 78.77111 
L 169.6257 81.462285 
L 169.971323 81.858805 
L 170.316945 79.792507 
L 170.662568 79.157413 
L 171.008191 79.645498 
L 171.353814 79.320625 
L 171.699437 77.936584 
L 172.04506 77.662346 
L 172.390683 76.189922 
L 172.736306 76.11558 
L 172.80543 79.178367 
L 173.151053 78.317177 
L 173.496676 79.470111 
L 173.842299 81.401294 
L 174.187922 85.904741 
L 174.533545 86.597968 
L 174.879168 88.246243 
L 175.22479 88.592587 
L 175.570413 88.175252 
L 175.916036 85.903418 
L 176.261659 85.605158 
L 176.607282 84.891724 
L 176.952905 86.786809 
L 177.298528 87.053409 
L 177.644151 87.142949 
L 177.989773 86.125524 
L 178.335396 89.015532 
L 178.681019 87.021337 
L 179.026642 87.058442 
L 179.717888 82.88711 
L 180.063511 82.604974 
L 180.409134 80.118548 
L 180.754757 79.674972 
L 181.446002 75.420154 
L 181.791625 76.722082 
L 182.137248 78.769966 
L 182.482871 77.872364 
L 182.828494 80.643706 
L 183.174117 80.728336 
L 183.865363 76.178575 
L 184.210985 76.943005 
L 184.556608 76.069952 
L 184.902231 76.15976 
L 185.247854 76.762435 
L 185.593477 73.526749 
L 185.9391 73.040491 
L 186.284723 71.418862 
L 186.630346 71.232128 
L 186.975969 70.900213 
L 187.321591 73.212543 
L 187.667214 71.989538 
L 188.012837 72.266075 
L 188.35846 72.058182 
L 188.704083 72.468553 
L 189.740952 76.79097 
L 190.086574 74.461306 
L 190.432197 73.971489 
L 190.77782 72.946432 
L 191.123443 73.293311 
L 191.469066 71.698962 
L 191.814689 69.493947 
L 192.160312 69.069291 
L 192.505935 71.412673 
L 193.19718 69.950945 
L 193.542803 68.395727 
L 193.888426 69.772606 
L 194.234049 68.540193 
L 194.579672 67.997137 
L 194.925295 67.927165 
L 195.270918 69.013699 
L 195.616541 65.454028 
L 195.962164 66.958939 
L 196.307786 64.942244 
L 196.653409 65.10343 
L 196.999032 65.653011 
L 197.344655 63.492541 
L 198.035901 68.405322 
L 198.381524 68.571868 
L 198.727147 70.735986 
L 199.07277 68.688831 
L 199.418392 69.010197 
L 199.764015 69.684138 
L 200.109638 65.057228 
L 200.455261 64.523578 
L 200.800884 65.741306 
L 201.146507 67.995257 
L 201.581992 85.201592 
L 201.927615 89.810649 
L 202.273237 88.157731 
L 202.61886 90.590965 
L 202.964483 89.059632 
L 203.310106 90.524467 
L 203.655729 90.546267 
L 204.346975 89.897282 
L 204.692598 92.796858 
L 205.383843 93.639589 
L 205.729466 91.671937 
L 206.075089 91.410292 
L 206.420712 91.729962 
L 206.766335 91.117757 
L 207.111958 93.593358 
L 207.457581 93.582407 
L 207.803204 92.236908 
L 208.148827 91.900133 
L 208.494449 92.343483 
L 208.840072 92.560746 
L 209.531318 95.478597 
L 209.876941 95.275907 
L 210.222564 95.382798 
L 210.568187 93.955017 
L 210.91381 94.124262 
L 211.259432 92.976588 
L 211.605055 92.42464 
L 211.950678 93.762595 
L 212.296301 94.507177 
L 212.987547 98.798333 
L 213.33317 100.710745 
L 213.678793 100.430878 
L 214.024416 99.527063 
L 214.370038 98.222942 
L 214.715661 99.255953 
L 215.061284 99.050194 
L 215.406907 100.778988 
L 215.75253 101.696711 
L 216.098153 100.710173 
L 216.443776 103.024835 
L 216.789399 103.482898 
L 217.135022 104.707725 
L 218.863136 93.106882 
L 219.208759 91.008333 
L 219.554382 92.651444 
L 219.900005 89.114883 
L 220.245628 91.230944 
L 220.59125 92.229403 
L 220.936873 92.331958 
L 221.282496 93.11609 
L 221.973742 91.427803 
L 222.319365 91.599554 
L 222.664988 91.024811 
L 223.010611 90.867818 
L 223.701856 90.818572 
L 224.047479 93.097805 
L 224.393102 90.714366 
L 224.738725 89.679795 
L 225.084348 90.891941 
L 225.429971 93.702291 
L 225.775594 93.873288 
L 226.466839 89.678516 
L 226.812462 90.795358 
L 227.158085 90.317216 
L 227.503708 88.511726 
L 227.849331 90.61134 
L 227.939193 95.342785 
L 228.284816 97.651901 
L 228.630439 98.210385 
L 228.976062 100.005245 
L 230.151179 109.461247 
L 230.683439 117.76246 
L 231.004868 121.208944 
L 231.15003 124.366136 
L 231.409247 126.982363 
L 231.523302 129.651135 
L 231.830907 131.443294 
L 232.221461 139.418811 
L 232.639664 143.921196 
L 232.757176 148.712856 
L 233.306716 153.756806 
L 233.666164 157.876654 
L 234.938056 186.093929 
L 235.238748 188.822272 
L 235.370085 191.994821 
L 235.715708 192.963589 
L 236.061331 195.843194 
L 236.406954 197.245081 
L 236.752577 197.83667 
L 237.098199 197.957749 
L 237.443822 201.12267 
L 237.789445 202.905591 
L 238.135068 205.754317 
L 238.480691 206.025065 
L 238.826314 206.585107 
L 239.171937 208.666936 
L 239.51756 211.547195 
L 239.863183 210.864898 
L 240.554428 215.839773 
L 240.900051 214.359415 
L 241.245674 212.379687 
L 241.591297 211.656463 
L 241.93692 209.527811 
L 242.282543 208.306666 
L 242.628166 206.061191 
L 244.010657 190.680492 
L 244.211118 190.680492 
L 244.902364 182.014568 
L 245.59361 177.378814 
L 245.939233 172.475655 
L 246.284856 169.971729 
L 246.976102 161.814244 
L 247.321724 159.077464 
L 247.667347 154.882772 
L 248.01297 152.319372 
L 248.358593 147.858848 
L 248.704216 145.543587 
L 249.395462 136.875628 
L 250.086707 132.010318 
L 250.777953 124.213264 
L 251.814822 117.531137 
L 252.160445 113.366149 
L 252.851691 107.525325 
L 253.197313 107.011833 
L 253.888559 102.661487 
L 254.234182 102.652493 
L 254.579805 99.494826 
L 254.925428 98.685316 
L 255.271051 95.825297 
L 255.616674 90.725235 
L 255.962297 90.165206 
L 256.307919 86.236767 
L 256.653542 84.448022 
L 257.344788 83.456882 
L 257.690411 80.904524 
L 258.036034 80.368606 
L 258.72728 76.32921 
L 259.072903 76.328512 
L 259.418525 77.754622 
L 259.764148 76.620609 
L 260.109771 77.082558 
L 260.801017 77.061171 
L 261.14664 79.390095 
L 261.492263 76.792079 
L 261.837886 77.033552 
L 262.183508 76.304662 
L 263.220377 76.786051 
L 263.566 75.546197 
L 263.911623 77.678857 
L 264.257246 78.973395 
L 264.602869 76.89594 
L 264.948492 78.617409 
L 265.294114 76.846217 
L 265.639737 79.076569 
L 265.98536 78.270332 
L 266.330983 80.9025 
L 266.676606 80.09704 
L 267.022229 80.159237 
L 267.367852 77.632968 
L 267.713475 79.212492 
L 268.059098 80.147865 
L 268.40472 80.098514 
L 268.750343 79.534746 
L 269.441589 79.434704 
L 270.132835 80.121856 
L 270.478458 79.628876 
L 270.824081 81.819132 
L 271.169704 82.47258 
L 271.515326 81.526168 
L 271.860949 80.251539 
L 272.085604 82.542599 
L 272.431227 82.33765 
L 272.77685 86.114394 
L 273.122473 85.310905 
L 273.813719 82.346362 
L 274.159341 82.086646 
L 274.504964 81.99672 
L 274.850587 82.097167 
L 275.19621 83.915739 
L 275.541833 84.770758 
L 275.887456 84.899453 
L 276.578702 84.377627 
L 276.924325 82.944053 
L 277.269947 83.380287 
L 277.61557 86.020854 
L 277.961193 84.594203 
L 278.652439 85.750957 
L 278.998062 87.483277 
L 279.343685 87.235379 
L 279.689308 87.160521 
L 280.034931 84.383148 
L 280.380553 87.057932 
L 280.726176 86.355278 
L 281.071799 86.511091 
L 281.417422 83.822712 
L 282.108668 81.773231 
L 282.454291 83.888207 
L 282.799914 82.985271 
L 283.145537 83.399955 
L 283.491159 82.304183 
L 283.836782 82.402784 
L 284.182405 80.180943 
L 284.528028 80.141186 
L 284.873651 75.677854 
L 285.564897 72.128695 
L 285.91052 70.88597 
L 286.256143 68.13779 
L 286.601765 68.573726 
L 286.947388 66.225342 
L 287.293011 68.715205 
L 287.638634 66.446644 
L 287.984257 66.321225 
L 288.32988 64.378863 
L 288.675503 63.13094 
L 289.021126 66.791333 
L 289.366748 62.639457 
L 289.712371 62.706556 
L 290.057994 61.508613 
L 290.403617 59.554263 
L 290.74924 63.405461 
L 291.440486 67.290915 
L 291.786109 66.850612 
L 292.131732 66.845098 
L 292.477354 64.968886 
L 292.822977 63.894165 
L 293.1686 63.423413 
L 293.514223 63.75747 
L 293.859846 62.736296 
L 294.205469 64.452883 
L 294.551092 62.65142 
L 294.896715 58.265655 
L 295.242338 59.468059 
L 295.933583 53.648988 
L 296.970452 52.45973 
L 297.316075 52.667793 
L 297.661698 50.286173 
L 298.007321 50.047909 
L 298.352944 47.47618 
L 298.698566 48.532011 
L 299.044189 51.731348 
L 299.389812 52.483393 
L 299.735435 51.802181 
L 300.081058 48.512279 
L 300.426681 48.352257 
L 300.772304 47.166374 
L 301.809172 52.144422 
L 302.154795 57.279472 
L 302.846041 60.524597 
L 304.228533 68.436721 
L 304.574155 68.234492 
L 304.919778 70.599806 
L 305.265401 70.91734 
L 305.611024 72.509872 
L 305.956647 73.475594 
L 306.30227 71.841876 
L 306.647893 72.311244 
L 306.993516 72.988601 
L 307.339139 71.119842 
L 307.684761 71.671221 
L 308.030384 68.152056 
L 308.376007 66.630539 
L 308.72163 66.605129 
L 309.067253 67.429944 
L 309.412876 69.893372 
L 309.758499 70.739533 
L 310.104122 71.997437 
L 310.795367 78.21427 
L 311.14099 77.926504 
L 311.486613 76.237514 
L 311.832236 76.779041 
L 312.177859 78.150808 
L 312.523482 75.11246 
L 312.869105 77.859587 
L 313.214728 78.17003 
L 313.56035 79.28907 
L 313.905973 81.336716 
L 314.251596 81.74611 
L 315.288465 86.138826 
L 315.979711 90.242259 
L 316.325334 90.414208 
L 317.016579 91.857498 
L 317.362202 94.872418 
L 317.707825 95.495714 
L 318.399071 95.856602 
L 318.744694 92.914258 
L 319.090317 94.867043 
L 319.43594 92.225201 
L 319.781562 92.805073 
L 320.127185 90.748602 
L 320.818431 85.88134 
L 321.164054 84.285897 
L 321.509677 81.362412 
L 321.8553 81.070431 
L 322.200923 81.470667 
L 322.546546 81.150625 
L 322.892168 77.091944 
L 323.237791 75.729599 
L 323.583414 77.163181 
L 323.673276 80.845688 
L 324.018899 82.519348 
L 324.11913 88.881144 
L 324.378347 93.619401 
L 324.734338 107.693528 
L 325.263141 111.732108 
L 325.691714 118.670845 
L 325.885263 120.399718 
L 326.894481 145.765689 
L 326.935956 148.037629 
L 327.157155 152.277205 
L 327.399091 154.507237 
L 327.679045 159.865787 
L 327.737801 163.175125 
L 328.083424 162.176641 
L 328.429047 163.553172 
L 328.77467 162.031133 
L 329.120293 162.327227 
L 329.465916 163.282412 
L 329.811539 163.298169 
L 330.157161 163.792474 
L 330.502784 165.469735 
L 330.848407 165.741559 
L 331.19403 167.496369 
L 331.539653 168.090701 
L 331.885276 171.616483 
L 332.230899 172.064188 
L 332.576522 174.971308 
L 332.922145 175.115229 
L 333.61339 179.977542 
L 333.959013 183.370549 
L 334.304636 185.055546 
L 334.650259 187.983667 
L 334.995882 188.365722 
L 335.341505 185.918922 
L 335.687128 186.215704 
L 336.032751 191.180034 
L 336.378373 190.286558 
L 336.723996 190.203865 
L 337.415242 185.052399 
L 338.797734 165.921306 
L 338.998195 165.921306 
L 339.343818 159.684697 
L 339.689441 157.2576 
L 340.035064 152.351612 
L 340.43253 149.308051 
L 341.123776 139.813846 
L 341.815021 133.728715 
L 342.506267 127.808307 
L 342.85189 125.612343 
L 343.197513 119.37815 
L 344.234382 107.535176 
L 344.580005 105.495778 
L 344.925627 107.258319 
L 345.27125 106.735964 
L 345.616873 108.709725 
L 345.962496 107.146361 
L 346.308119 106.670321 
L 346.653742 103.844908 
L 346.999365 102.771773 
L 347.344988 99.738386 
L 347.69061 99.488906 
L 348.381856 92.396793 
L 348.727479 91.864527 
L 349.073102 91.608774 
L 349.764348 91.532761 
L 350.109971 91.747399 
L 350.455594 91.188567 
L 350.801216 90.942271 
L 351.146839 91.133774 
L 351.492462 90.349012 
L 351.838085 90.597095 
L 352.183708 93.553303 
L 352.529331 93.634968 
L 352.874954 93.888761 
L 353.220577 96.334222 
L 353.5662 95.415609 
L 353.911822 92.748685 
L 354.257445 93.646127 
L 354.603068 95.402125 
L 354.948691 95.834465 
L 355.294314 97.334257 
L 355.639937 99.910537 
L 355.98556 96.998924 
L 356.331183 99.548675 
L 356.676806 99.911801 
L 357.022428 98.910756 
L 357.368051 97.351164 
L 357.713674 93.934379 
L 358.059297 93.992031 
L 358.40492 95.860758 
L 358.750543 93.931993 
L 359.441789 96.413324 
L 359.787411 96.886441 
L 360.133034 94.439659 
L 360.478657 97.942654 
L 360.82428 99.526732 
L 361.169903 98.898581 
L 361.515526 97.572538 
L 361.861149 95.647295 
L 362.206772 94.370214 
L 362.898017 93.521968 
L 363.24364 91.984692 
L 363.589263 89.488876 
L 363.934886 90.217115 
L 364.280509 88.341949 
L 364.626132 90.485487 
L 364.785118 99.023734 
L 365.130741 99.547203 
L 365.476364 98.73622 
L 365.821987 98.43114 
L 366.513233 95.993973 
L 366.858856 95.19844 
L 367.204479 93.456014 
L 367.550102 93.022063 
L 367.895724 93.268553 
L 368.241347 94.078177 
L 368.58697 93.835782 
L 368.932593 91.077758 
L 369.623839 88.457741 
L 369.969462 89.293526 
L 370.315085 88.324169 
L 370.660707 88.620351 
L 371.00633 88.136087 
L 371.351953 86.549967 
L 371.697576 86.256183 
L 372.043199 87.220892 
L 372.388822 85.21304 
L 372.734445 85.262103 
L 373.425691 83.191406 
L 373.771313 86.346275 
L 374.116936 87.674337 
L 374.462559 87.236905 
L 374.808182 85.80246 
L 375.153805 86.360604 
L 375.499428 87.613655 
L 375.845051 87.099976 
L 376.190674 86.281347 
L 376.536297 84.153111 
L 376.881919 86.473661 
L 377.573165 85.280112 
L 378.610034 88.594764 
L 378.955657 88.002041 
L 379.30128 88.22748 
L 379.646903 85.887046 
L 380.338148 90.273521 
L 380.683771 91.389222 
L 381.029394 93.144386 
L 381.375017 91.502337 
L 381.72064 86.931416 
L 382.066263 80.411532 
L 382.411886 82.446482 
L 382.757508 82.150445 
L 383.103131 79.550095 
L 383.448754 77.897251 
L 383.794377 77.410345 
L 384.14 75.671207 
L 384.485623 76.728896 
L 384.831246 75.626551 
L 385.176869 71.664096 
L 385.868114 67.331534 
L 386.213737 69.634277 
L 386.55936 70.855042 
L 386.904983 70.45083 
L 387.250606 69.661742 
L 387.596229 71.183752 
L 387.941852 71.107189 
L 388.287475 73.065815 
L 388.432636 77.394068 
L 388.778259 76.610671 
L 389.123882 74.743086 
L 389.469505 74.29077 
L 389.815128 74.240686 
L 390.160751 75.3524 
L 390.506374 74.16903 
L 390.851996 74.319633 
L 391.197619 75.113256 
L 391.543242 74.70984 
L 391.888865 78.415313 
L 392.234488 76.125505 
L 392.580111 75.689842 
L 392.925734 76.267802 
L 393.271357 73.058207 
L 393.61698 73.44295 
L 393.962602 72.546373 
L 394.308225 72.930421 
L 394.653848 70.448767 
L 394.999471 72.805544 
L 395.345094 72.266703 
L 395.690717 72.648694 
L 396.03634 73.248465 
L 396.381963 70.862342 
L 396.727586 71.225932 
L 397.073208 69.773858 
L 397.418831 69.710761 
L 397.764454 69.502393 
L 398.110077 68.044463 
L 398.4557 67.463132 
L 399.146946 70.798321 
L 399.492569 68.579385 
L 399.838192 69.511295 
L 400.183814 69.726367 
L 400.529437 72.183188 
L 400.87506 73.780164 
L 401.023678 78.103387 
L 401.275983 81.433484 
L 401.448794 85.190169 
L 401.569762 90.877854 
L 402.364695 103.553093 
L 402.893498 113.452386 
L 402.914235 118.1405 
L 403.114696 121.051435 
L 403.270227 121.051435 
L 404.03751 138.528844 
L 404.383132 137.531543 
L 404.728755 139.365437 
L 405.074378 139.748088 
L 405.420001 139.665139 
L 405.765624 141.301519 
L 406.111247 139.106988 
L 406.45687 141.313842 
L 406.802493 142.71184 
L 407.148116 143.117331 
L 407.493738 146.391131 
L 407.839361 148.382238 
L 408.184984 148.662544 
L 408.530607 149.555929 
L 408.87623 151.65871 
L 409.221853 151.485702 
L 409.567476 153.349312 
L 409.913099 150.977878 
L 410.258722 151.651223 
L 410.604344 152.846351 
L 410.949967 152.711997 
L 411.29559 152.144114 
L 411.641213 149.860713 
L 411.986836 148.856521 
L 412.678082 152.242673 
L 413.023705 152.843268 
L 413.71495 158.436376 
L 414.060573 158.572757 
L 414.406196 160.962918 
L 414.751819 160.066668 
L 415.097442 159.971931 
L 416.303666 146.794596 
L 416.994912 139.271999 
L 417.340534 135.404946 
L 417.686157 133.430928 
L 418.03178 130.408452 
L 419.759895 120.04139 
L 420.105518 115.466695 
L 421.833632 103.734143 
L 422.524878 101.788245 
L 422.870501 102.021229 
L 423.216124 101.876096 
L 423.907369 98.066397 
L 424.252992 97.491859 
L 424.598615 95.430971 
L 424.944238 92.494266 
L 425.289861 91.562119 
L 425.981107 88.638631 
L 426.672352 88.628918 
L 427.017975 90.86314 
L 427.363598 90.477667 
L 427.709221 91.898793 
L 428.74609 99.148727 
L 429.091713 101.023443 
L 429.437335 101.572214 
L 429.437335 101.572214 
" style="fill:none;stroke:#834c7d;stroke-linecap:round;stroke-width:1.5;"/>
   </g>
   <g id="line2d_19">
    <path clip-path="url(#pdf419d4de7)" d="M 92.461934 286.969091 
L 92.669308 264.082664 
L 93.526453 238.943605 
L 93.60249 232.535627 
L 93.948113 228.592245 
L 94.169311 232.224194 
L 94.514934 231.977732 
L 94.864013 238.745616 
L 95.209636 240.717306 
L 95.555259 238.252693 
L 95.824845 238.252693 
L 96.004569 239.731468 
L 96.028762 242.53662 
L 96.464247 242.53662 
L 96.62669 244.844115 
L 99.326005 244.844115 
L 99.716558 247.755474 
L 102.326011 247.755474 
L 102.612878 250.220088 
L 102.778777 250.220088 
L 103.048363 252.43824 
L 103.736153 252.43824 
L 104.081776 249.24446 
L 105.201594 249.24446 
L 105.547217 246.779847 
L 112.39055 246.779847 
L 112.680873 249.24446 
L 112.860597 252.43824 
L 114.142858 252.43824 
L 114.336407 254.902853 
L 122.493107 254.902853 
L 122.83873 252.43824 
L 125.46892 252.43824 
L 125.814543 249.973626 
L 128.209709 249.973626 
L 128.900955 245.044399 
L 131.51732 245.044399 
L 131.842206 247.509013 
L 134.921706 247.509013 
L 135.250047 249.973626 
L 136.49429 249.973626 
L 136.839913 247.509013 
L 138.028855 247.509013 
L 138.339916 249.973626 
L 138.51964 252.43824 
L 139.874482 252.43824 
L 140.220104 249.973626 
L 145.293848 249.973626 
L 145.639471 247.509013 
L 146.0715 247.509013 
L 146.171731 249.973626 
L 146.842239 249.973626 
L 147.187862 247.509013 
L 148.985101 247.509013 
L 149.081875 249.973626 
L 153.851471 249.973626 
L 154.089951 252.43824 
L 155.392949 252.43824 
L 155.510461 254.902853 
L 157.248944 254.902853 
L 157.594567 252.43824 
L 167.33422 252.43824 
L 167.531225 254.902853 
L 171.284689 254.902853 
L 171.675243 252.43824 
L 177.996686 252.43824 
L 178.445996 249.973626 
L 179.444846 249.973626 
L 179.527795 252.43824 
L 185.552002 252.43824 
L 185.631495 254.902853 
L 186.630346 254.902853 
L 186.975969 252.43824 
L 192.426441 252.43824 
L 192.806627 249.973626 
L 194.030132 249.973626 
L 194.455248 247.509013 
L 194.67299 247.509013 
L 194.869995 249.973626 
L 201.834296 249.973626 
L 201.989827 252.43824 
L 203.109645 252.43824 
L 203.317019 254.902853 
L 210.329707 254.902853 
L 210.67533 252.43824 
L 220.684569 252.43824 
L 220.85738 254.902853 
L 231.381597 254.902853 
L 231.72722 252.43824 
L 238.650046 252.43824 
L 238.974932 254.902853 
L 241.954201 254.902853 
L 242.299824 252.43824 
L 243.326324 252.43824 
L 244.124713 247.509013 
L 250.173113 247.509013 
L 250.186938 249.973626 
L 250.677723 249.973626 
L 251.102839 247.509013 
L 251.234175 247.509013 
L 251.389706 252.43824 
L 252.689248 252.43824 
L 253.449618 247.509013 
L 256.663911 247.509013 
L 257.009534 245.044399 
L 259.128202 245.044399 
L 259.473825 242.579785 
L 259.729586 245.044399 
L 261.924291 245.044399 
L 262.159315 247.509013 
L 265.43582 247.509013 
L 265.53605 249.973626 
L 268.166241 249.973626 
L 268.24919 252.43824 
L 270.295278 252.43824 
L 270.495739 254.902853 
L 282.450835 254.902853 
L 282.796457 252.43824 
L 283.988856 252.43824 
L 284.334479 249.973626 
L 284.839089 249.973626 
L 285.184712 247.509013 
L 291.734265 247.509013 
L 291.779196 249.973626 
L 292.784959 249.973626 
L 293.123669 252.43824 
L 293.593716 252.43824 
L 293.832196 254.902853 
L 294.502705 254.902853 
L 294.941646 252.43824 
L 297.257319 252.43824 
L 297.685891 249.973626 
L 298.276906 249.973626 
L 298.733129 247.509013 
L 298.975065 247.509013 
L 299.320688 245.044399 
L 303.665167 245.044399 
L 303.869085 247.509013 
L 306.385219 247.509013 
L 306.658261 249.973626 
L 307.124852 249.973626 
L 307.204346 252.43824 
L 307.90596 252.43824 
L 307.926697 254.902853 
L 317.282709 254.902853 
L 317.628332 252.43824 
L 318.018886 252.43824 
L 318.405983 249.973626 
L 321.675576 249.973626 
L 322.021199 247.509013 
L 322.781569 247.509013 
L 323.158298 245.044399 
L 325.346091 245.044399 
L 325.45669 247.509013 
L 329.908313 247.509013 
L 330.105318 249.973626 
L 333.603022 249.973626 
L 333.755096 252.43824 
L 339.841515 252.43824 
L 340.200963 254.902853 
L 341.607648 254.902853 
L 341.953271 252.43824 
L 346.035077 252.43824 
L 346.764341 247.509013 
L 347.161807 247.509013 
L 347.59038 245.044399 
L 350.69753 245.044399 
L 350.818498 247.509013 
L 351.108821 247.509013 
L 351.540849 245.044399 
L 355.156065 245.044399 
L 355.456757 247.509013 
L 355.612287 247.509013 
L 355.657218 249.973626 
L 355.93026 249.973626 
L 356.044316 252.43824 
L 359.24824 252.43824 
L 359.593863 249.973626 
L 359.849624 249.973626 
L 359.918748 252.43824 
L 365.189497 252.43824 
L 365.53512 249.973626 
L 368.303559 249.973626 
L 368.455633 252.43824 
L 372.793201 252.43824 
L 373.24251 249.973626 
L 373.906106 249.973626 
L 374.096199 252.43824 
L 376.906113 252.43824 
L 377.358879 249.973626 
L 378.257499 249.973626 
L 378.603121 247.509013 
L 378.845057 247.509013 
L 379.242524 245.044399 
L 381.461423 245.044399 
L 381.862345 247.509013 
L 385.1112 247.509013 
L 385.218343 249.973626 
L 386.16535 249.973626 
L 386.22065 252.43824 
L 386.590466 252.43824 
L 386.891158 254.902853 
L 396.084727 254.902853 
L 396.43035 252.43824 
L 406.24604 252.43824 
L 406.294427 254.902853 
L 406.830142 254.902853 
L 407.27254 252.43824 
L 412.754119 252.43824 
L 413.099742 249.973626 
L 416.040992 249.973626 
L 416.383159 252.43824 
L 418.519109 252.43824 
L 418.9304 249.973626 
L 419.932706 249.973626 
L 420.278329 247.509013 
L 421.985706 247.509013 
L 422.075568 249.973626 
L 423.85207 249.973626 
L 424.197693 247.509013 
L 426.796777 247.509013 
L 427.208068 245.044399 
L 427.208068 245.044399 
" style="fill:none;stroke:#2d1e3e;stroke-linecap:round;stroke-width:1.5;"/>
   </g>
   <g id="line2d_20"/>
   <g id="line2d_21"/>
   <g id="line2d_22"/>
   <g id="line2d_23"/>
   <g id="patch_3">
    <path d="M 72.29 299.32 
L 72.29 27.6 
" style="fill:none;stroke:#000000;stroke-linecap:square;stroke-linejoin:miter;stroke-width:0.8;"/>
   </g>
   <g id="patch_4">
    <path d="M 72.29 299.32 
L 446.498664 299.32 
" style="fill:none;stroke:#000000;stroke-linecap:square;stroke-linejoin:miter;stroke-width:0.8;"/>
   </g>
   <g id="text_18">
    <!-- Training reward -->
    <g style="fill:#262626;" transform="translate(205.312769 21.6)scale(0.14 -0.14)">
     <defs>
      <path d="M 4.203125 54.6875 
L 13.1875 54.6875 
L 24.421875 12.015625 
L 35.59375 54.6875 
L 46.1875 54.6875 
L 57.421875 12.015625 
L 68.609375 54.6875 
L 77.59375 54.6875 
L 63.28125 0 
L 52.6875 0 
L 40.921875 44.828125 
L 29.109375 0 
L 18.5 0 
z
" id="DejaVuSans-119"/>
      <path d="M 45.40625 46.390625 
L 45.40625 75.984375 
L 54.390625 75.984375 
L 54.390625 0 
L 45.40625 0 
L 45.40625 8.203125 
Q 42.578125 3.328125 38.25 0.953125 
Q 33.9375 -1.421875 27.875 -1.421875 
Q 17.96875 -1.421875 11.734375 6.484375 
Q 5.515625 14.40625 5.515625 27.296875 
Q 5.515625 40.1875 11.734375 48.09375 
Q 17.96875 56 27.875 56 
Q 33.9375 56 38.25 53.625 
Q 42.578125 51.265625 45.40625 46.390625 
z
M 14.796875 27.296875 
Q 14.796875 17.390625 18.875 11.75 
Q 22.953125 6.109375 30.078125 6.109375 
Q 37.203125 6.109375 41.296875 11.75 
Q 45.40625 17.390625 45.40625 27.296875 
Q 45.40625 37.203125 41.296875 42.84375 
Q 37.203125 48.484375 30.078125 48.484375 
Q 22.953125 48.484375 18.875 42.84375 
Q 14.796875 37.203125 14.796875 27.296875 
z
" id="DejaVuSans-100"/>
     </defs>
     <use xlink:href="#DejaVuSans-84"/>
     <use x="46.333984" xlink:href="#DejaVuSans-114"/>
     <use x="87.447266" xlink:href="#DejaVuSans-97"/>
     <use x="148.726562" xlink:href="#DejaVuSans-105"/>
     <use x="176.509766" xlink:href="#DejaVuSans-110"/>
     <use x="239.888672" xlink:href="#DejaVuSans-105"/>
     <use x="267.671875" xlink:href="#DejaVuSans-110"/>
     <use x="331.050781" xlink:href="#DejaVuSans-103"/>
     <use x="394.527344" xlink:href="#DejaVuSans-32"/>
     <use x="426.314453" xlink:href="#DejaVuSans-114"/>
     <use x="465.177734" xlink:href="#DejaVuSans-101"/>
     <use x="526.701172" xlink:href="#DejaVuSans-119"/>
     <use x="608.488281" xlink:href="#DejaVuSans-97"/>
     <use x="669.767578" xlink:href="#DejaVuSans-114"/>
     <use x="709.130859" xlink:href="#DejaVuSans-100"/>
    </g>
   </g>
   <g id="legend_1">
    <g id="patch_5">
     <path d="M 385.462726 50.278125 
L 439.498664 50.278125 
Q 441.498664 50.278125 441.498664 48.278125 
L 441.498664 34.6 
Q 441.498664 32.6 439.498664 32.6 
L 385.462726 32.6 
Q 383.462726 32.6 383.462726 34.6 
L 383.462726 48.278125 
Q 383.462726 50.278125 385.462726 50.278125 
z
" style="fill:#ffffff;opacity:0.8;stroke:#cccccc;stroke-linejoin:miter;"/>
    </g>
    <g id="patch_6">
     <path d="M 387.462726 44.198437 
L 407.462726 44.198437 
L 407.462726 37.198437 
L 387.462726 37.198437 
z
" style="fill:#008000;stroke:#008000;stroke-linejoin:miter;"/>
    </g>
    <g id="text_19">
     <!-- A2C -->
     <g style="fill:#262626;" transform="translate(415.462726 44.198437)scale(0.1 -0.1)">
      <defs>
       <path d="M 53.421875 13.28125 
L 24.03125 13.28125 
L 19.390625 0 
L 0.484375 0 
L 27.484375 72.90625 
L 49.90625 72.90625 
L 76.90625 0 
L 58.015625 0 
z
M 28.71875 26.8125 
L 48.6875 26.8125 
L 38.71875 55.8125 
z
" id="DejaVuSans-Bold-65"/>
       <path d="M 28.8125 13.8125 
L 60.890625 13.8125 
L 60.890625 0 
L 7.90625 0 
L 7.90625 13.8125 
L 34.515625 37.3125 
Q 38.09375 40.53125 39.796875 43.609375 
Q 41.5 46.6875 41.5 50 
Q 41.5 55.125 38.0625 58.25 
Q 34.625 61.375 28.90625 61.375 
Q 24.515625 61.375 19.28125 59.5 
Q 14.0625 57.625 8.109375 53.90625 
L 8.109375 69.921875 
Q 14.453125 72.015625 20.65625 73.109375 
Q 26.859375 74.21875 32.8125 74.21875 
Q 45.90625 74.21875 53.15625 68.453125 
Q 60.40625 62.703125 60.40625 52.390625 
Q 60.40625 46.4375 57.328125 41.28125 
Q 54.25 36.140625 44.390625 27.484375 
z
" id="DejaVuSans-Bold-50"/>
       <path d="M 67 4 
Q 61.8125 1.3125 56.203125 -0.046875 
Q 50.59375 -1.421875 44.484375 -1.421875 
Q 26.265625 -1.421875 15.625 8.765625 
Q 4.984375 18.953125 4.984375 36.375 
Q 4.984375 53.859375 15.625 64.03125 
Q 26.265625 74.21875 44.484375 74.21875 
Q 50.59375 74.21875 56.203125 72.84375 
Q 61.8125 71.484375 67 68.796875 
L 67 53.71875 
Q 61.765625 57.28125 56.6875 58.9375 
Q 51.609375 60.59375 46 60.59375 
Q 35.9375 60.59375 30.171875 54.140625 
Q 24.421875 47.703125 24.421875 36.375 
Q 24.421875 25.09375 30.171875 18.640625 
Q 35.9375 12.203125 46 12.203125 
Q 51.609375 12.203125 56.6875 13.859375 
Q 61.765625 15.53125 67 19.09375 
z
" id="DejaVuSans-Bold-67"/>
      </defs>
      <use xlink:href="#DejaVuSans-Bold-65"/>
      <use x="77.392578" xlink:href="#DejaVuSans-Bold-50"/>
      <use x="146.972656" xlink:href="#DejaVuSans-Bold-67"/>
     </g>
    </g>
   </g>
  </g>
 </g>
 <defs>
  <clipPath id="pdf419d4de7">
   <rect height="271.72" width="374.208664" x="72.29" y="27.6"/>
  </clipPath>
 </defs>
</svg>
